%FSLAX34Y34*%
%MOMM*%
%LNSILK_TOP*%
G71*
G01*
%ADD10R, 0.55X1.00*%
%ADD11C, 1.90*%
%ADD12C, 0.20*%
%LPD*%
X85569Y886877D02*
G54D10*
D03*
X85569Y913877D02*
G54D10*
D03*
X95069Y886877D02*
G54D10*
D03*
X95069Y913877D02*
G54D10*
D03*
X104569Y886877D02*
G54D10*
D03*
X104569Y913877D02*
G54D10*
D03*
X69883Y937900D02*
G54D11*
D03*
X95283Y937900D02*
G54D11*
D03*
X120683Y937900D02*
G54D11*
D03*
X69883Y861700D02*
G54D11*
D03*
X95283Y861700D02*
G54D11*
D03*
X120683Y861700D02*
G54D11*
D03*
G54D12*
X104569Y913877D02*
X104570Y919285D01*
X120683Y937900D01*
G54D12*
X95069Y913877D02*
X95283Y937900D01*
G54D12*
X85569Y913877D02*
X85569Y919328D01*
X69883Y937900D01*
G54D12*
X95069Y886877D02*
X95283Y861700D01*
G54D12*
X85569Y886877D02*
X85570Y881895D01*
X69883Y861700D01*
G54D12*
X104569Y886877D02*
X104570Y881871D01*
X120683Y861700D01*
G36*
X72500Y920000D02*
X75000Y917500D01*
X75000Y885000D01*
X72500Y882500D01*
X62500Y882500D01*
X62500Y920000D01*
X72500Y920000D01*
G37*
G54D12*
X72500Y920000D02*
X75000Y917500D01*
X75000Y885000D01*
X72500Y882500D01*
X62500Y882500D01*
X62500Y920000D01*
X72500Y920000D01*
G36*
X115000Y917500D02*
X117500Y920000D01*
X127500Y920000D01*
X127500Y882500D01*
X117500Y882500D01*
X115000Y885000D01*
X115000Y917500D01*
G37*
G54D12*
X115000Y917500D02*
X117500Y920000D01*
X127500Y920000D01*
X127500Y882500D01*
X117500Y882500D01*
X115000Y885000D01*
X115000Y917500D01*
M02*
