%FSLAX34Y34*%
%MOMM*%
%LNCOPPER_BOTTOM*%
G71*
G01*
%ADD10C, 0.20*%
%LPD*%
G54D10*
X69883Y950600D02*
X63483Y950600D01*
X57183Y944300D01*
X57183Y931500D01*
X63483Y925200D01*
X76283Y925200D01*
X82583Y931500D01*
X82583Y944300D01*
X76283Y950600D01*
X69883Y950600D01*
G54D10*
X95283Y950600D02*
X88883Y950600D01*
X82583Y944300D01*
X82583Y931500D01*
X88883Y925200D01*
X101683Y925200D01*
X107983Y931500D01*
X107983Y944300D01*
X101683Y950600D01*
X95283Y950600D01*
G54D10*
X120683Y950600D02*
X114283Y950600D01*
X107983Y944300D01*
X107983Y931500D01*
X114283Y925200D01*
X127083Y925200D01*
X133383Y931500D01*
X133383Y944300D01*
X127083Y950600D01*
X120683Y950600D01*
G54D10*
X69883Y874400D02*
X63483Y874400D01*
X57183Y868100D01*
X57183Y855300D01*
X63483Y849000D01*
X76283Y849000D01*
X82583Y855300D01*
X82583Y868100D01*
X76283Y874400D01*
X69883Y874400D01*
G54D10*
X95283Y874400D02*
X88883Y874400D01*
X82583Y868100D01*
X82583Y855300D01*
X88883Y849000D01*
X101683Y849000D01*
X107983Y855300D01*
X107983Y868100D01*
X101683Y874400D01*
X95283Y874400D01*
G54D10*
X120683Y874400D02*
X114283Y874400D01*
X107983Y868100D01*
X107983Y855300D01*
X114283Y849000D01*
X127083Y849000D01*
X133383Y855300D01*
X133383Y868100D01*
X127083Y874400D01*
X120683Y874400D01*
M02*
