; Drill file
; Format: 3.3 (000.000)
M48
METRIC
T01C0.8
%
G05
G90
T01
X006700Y052660
X009240Y052660
X011780Y052660
X014320Y052660
X016860Y052660
X019400Y052660
X021940Y052660
X024480Y052660
X027020Y052660
X029560Y052660
X032100Y052660
X034640Y052660
X037180Y052660
X039720Y052660
X042260Y052660
X044800Y052660
X047150Y055020
X047150Y057560
X047150Y060100
X047150Y062640
X047150Y065180
X047150Y067720
X047150Y070260
X047150Y072800
X047150Y075340
X047150Y077880
X047150Y080420
X047150Y082960
X047150Y085500
X047150Y088040
X047150Y090580
X047150Y093120
X044800Y095470
X042260Y095470
X039720Y095470
X037180Y095470
X034640Y095470
X032100Y095470
X029560Y095470
X027020Y095470
X024480Y095470
X021940Y095470
X019400Y095470
X016860Y095470
X014320Y095470
X011780Y095470
X009240Y095470
X006700Y095470
X004350Y093120
X004350Y090580
X004350Y088040
X004350Y085500
X004350Y082960
X004350Y080420
X004350Y077880
X004350Y075340
X004350Y072800
X004350Y070260
X004350Y067720
X004350Y065180
X004350Y062640
X004350Y060100
X004350Y057560
X004350Y055020
M30
