%FSLAX34Y34*%
%MOMM*%
%LNSILK_TOP*%
G71*
G01*
%ADD10C, 1.90*%
%ADD11R, 0.20X1.00*%
%ADD12R, 1.00X0.20*%
%ADD13C, 0.20*%
%LPD*%
X72001Y959675D02*
G54D10*
D03*
X97401Y959675D02*
G54D10*
D03*
X122801Y959675D02*
G54D10*
D03*
X148201Y959675D02*
G54D10*
D03*
X173601Y959675D02*
G54D10*
D03*
X199001Y959675D02*
G54D10*
D03*
X224401Y959675D02*
G54D10*
D03*
X249801Y959675D02*
G54D10*
D03*
X275201Y959675D02*
G54D10*
D03*
X300601Y959675D02*
G54D10*
D03*
X326001Y959675D02*
G54D10*
D03*
X351401Y959675D02*
G54D10*
D03*
X376801Y959675D02*
G54D10*
D03*
X402201Y959675D02*
G54D10*
D03*
X427601Y959675D02*
G54D10*
D03*
X453000Y959675D02*
G54D10*
D03*
X71996Y521749D02*
G54D10*
D03*
X97396Y521749D02*
G54D10*
D03*
X122796Y521749D02*
G54D10*
D03*
X148196Y521749D02*
G54D10*
D03*
X173596Y521749D02*
G54D10*
D03*
X198996Y521749D02*
G54D10*
D03*
X224396Y521749D02*
G54D10*
D03*
X249796Y521749D02*
G54D10*
D03*
X275196Y521749D02*
G54D10*
D03*
X300596Y521749D02*
G54D10*
D03*
X325996Y521749D02*
G54D10*
D03*
X351396Y521749D02*
G54D10*
D03*
X376796Y521749D02*
G54D10*
D03*
X402196Y521749D02*
G54D10*
D03*
X427596Y521749D02*
G54D10*
D03*
X452996Y521749D02*
G54D10*
D03*
X43533Y931216D02*
G54D10*
D03*
X43533Y905816D02*
G54D10*
D03*
X43533Y880416D02*
G54D10*
D03*
X43533Y855016D02*
G54D10*
D03*
X43533Y829616D02*
G54D10*
D03*
X43533Y804216D02*
G54D10*
D03*
X43533Y778816D02*
G54D10*
D03*
X43533Y753416D02*
G54D10*
D03*
X43533Y728016D02*
G54D10*
D03*
X43533Y702616D02*
G54D10*
D03*
X43533Y677216D02*
G54D10*
D03*
X43533Y651816D02*
G54D10*
D03*
X43533Y626416D02*
G54D10*
D03*
X43533Y601016D02*
G54D10*
D03*
X43533Y575616D02*
G54D10*
D03*
X43533Y550216D02*
G54D10*
D03*
X481464Y931211D02*
G54D10*
D03*
X481464Y905811D02*
G54D10*
D03*
X481464Y880411D02*
G54D10*
D03*
X481464Y855011D02*
G54D10*
D03*
X481464Y829611D02*
G54D10*
D03*
X481464Y804211D02*
G54D10*
D03*
X481464Y778811D02*
G54D10*
D03*
X481464Y753411D02*
G54D10*
D03*
X481464Y728011D02*
G54D10*
D03*
X481464Y702611D02*
G54D10*
D03*
X481464Y677211D02*
G54D10*
D03*
X481464Y651811D02*
G54D10*
D03*
X481464Y626411D02*
G54D10*
D03*
X481464Y601011D02*
G54D10*
D03*
X481464Y575611D02*
G54D10*
D03*
X481464Y550211D02*
G54D10*
D03*
X224998Y685715D02*
G54D11*
D03*
X224998Y795715D02*
G54D11*
D03*
X229998Y685715D02*
G54D11*
D03*
X229998Y795715D02*
G54D11*
D03*
X234998Y685715D02*
G54D11*
D03*
X234998Y795715D02*
G54D11*
D03*
X239998Y685715D02*
G54D11*
D03*
X239998Y795715D02*
G54D11*
D03*
X244998Y685715D02*
G54D11*
D03*
X244998Y795715D02*
G54D11*
D03*
X249998Y685715D02*
G54D11*
D03*
X249998Y795715D02*
G54D11*
D03*
X254998Y685715D02*
G54D11*
D03*
X254998Y795715D02*
G54D11*
D03*
X259998Y685715D02*
G54D11*
D03*
X259998Y795715D02*
G54D11*
D03*
X264998Y685715D02*
G54D11*
D03*
X264998Y795715D02*
G54D11*
D03*
X269998Y685715D02*
G54D11*
D03*
X269998Y795715D02*
G54D11*
D03*
X274998Y685715D02*
G54D11*
D03*
X274998Y795715D02*
G54D11*
D03*
X279998Y685715D02*
G54D11*
D03*
X279998Y795715D02*
G54D11*
D03*
X284998Y685715D02*
G54D11*
D03*
X284998Y795715D02*
G54D11*
D03*
X289998Y685715D02*
G54D11*
D03*
X289998Y795715D02*
G54D11*
D03*
X294998Y685715D02*
G54D11*
D03*
X294998Y795715D02*
G54D11*
D03*
X299998Y685715D02*
G54D11*
D03*
X299998Y795715D02*
G54D11*
D03*
X207498Y703215D02*
G54D12*
D03*
X317498Y703215D02*
G54D12*
D03*
X207498Y708215D02*
G54D12*
D03*
X317498Y708215D02*
G54D12*
D03*
X207498Y713215D02*
G54D12*
D03*
X317498Y713215D02*
G54D12*
D03*
X207498Y718215D02*
G54D12*
D03*
X317498Y718215D02*
G54D12*
D03*
X207498Y723215D02*
G54D12*
D03*
X317498Y723215D02*
G54D12*
D03*
X207498Y728215D02*
G54D12*
D03*
X317498Y728215D02*
G54D12*
D03*
X207498Y733215D02*
G54D12*
D03*
X317498Y733215D02*
G54D12*
D03*
X207498Y738215D02*
G54D12*
D03*
X317498Y738215D02*
G54D12*
D03*
X207498Y743215D02*
G54D12*
D03*
X317498Y743215D02*
G54D12*
D03*
X207498Y748215D02*
G54D12*
D03*
X317498Y748215D02*
G54D12*
D03*
X207498Y753215D02*
G54D12*
D03*
X317498Y753215D02*
G54D12*
D03*
X207498Y758215D02*
G54D12*
D03*
X317498Y758215D02*
G54D12*
D03*
X207498Y763215D02*
G54D12*
D03*
X317498Y763215D02*
G54D12*
D03*
X207498Y768215D02*
G54D12*
D03*
X317498Y768215D02*
G54D12*
D03*
X207498Y773215D02*
G54D12*
D03*
X317498Y773215D02*
G54D12*
D03*
X207498Y778215D02*
G54D12*
D03*
X317498Y778215D02*
G54D12*
D03*
G54D13*
X224998Y800715D02*
X72001Y959675D01*
G54D13*
X229998Y800715D02*
X97401Y959675D01*
G54D13*
X234998Y800715D02*
X122801Y959675D01*
G54D13*
X239998Y800715D02*
X148201Y959675D01*
G54D13*
X244998Y800715D02*
X173601Y959675D01*
G54D13*
X249998Y800715D02*
X199001Y959675D01*
G54D13*
X254998Y800715D02*
X224401Y959675D01*
G54D13*
X259998Y800715D02*
X249801Y959675D01*
G54D13*
X264998Y800715D02*
X275201Y959675D01*
G54D13*
X269998Y800715D02*
X300601Y959675D01*
G54D13*
X274998Y800715D02*
X326001Y959675D01*
G54D13*
X279998Y800715D02*
X351401Y959675D01*
G54D13*
X284998Y800715D02*
X376801Y959675D01*
G54D13*
X289998Y800715D02*
X402201Y959675D01*
G54D13*
X299998Y800715D02*
X453000Y959675D01*
G54D13*
X294998Y800715D02*
X427601Y959675D01*
G54D13*
X322498Y778215D02*
X481464Y931211D01*
G54D13*
X322498Y773215D02*
X481464Y905811D01*
G54D13*
X322498Y768215D02*
X481464Y880411D01*
G54D13*
X322498Y763215D02*
X481464Y855011D01*
G54D13*
X322498Y758215D02*
X481464Y829611D01*
G54D13*
X322498Y753215D02*
X481464Y804211D01*
G54D13*
X322498Y748215D02*
X481464Y778811D01*
G54D13*
X322498Y743215D02*
X481464Y753411D01*
G54D13*
X322498Y738215D02*
X481464Y728011D01*
G54D13*
X322498Y733215D02*
X481464Y702611D01*
G54D13*
X322498Y728215D02*
X481464Y677211D01*
G54D13*
X322498Y723215D02*
X481464Y651811D01*
G54D13*
X322498Y718215D02*
X481464Y626411D01*
G54D13*
X322498Y713215D02*
X481464Y601011D01*
G54D13*
X322498Y708215D02*
X481464Y575611D01*
G54D13*
X322498Y703215D02*
X481464Y550211D01*
G54D13*
X299998Y680715D02*
X452996Y521749D01*
G54D13*
X294998Y680715D02*
X427596Y521749D01*
G54D13*
X289998Y680715D02*
X402196Y521749D01*
G54D13*
X284998Y680715D02*
X376796Y521749D01*
G54D13*
X279998Y680715D02*
X351396Y521749D01*
G54D13*
X274998Y680715D02*
X325996Y521749D01*
G54D13*
X269998Y680715D02*
X300596Y521749D01*
G54D13*
X264998Y680715D02*
X275196Y521749D01*
G54D13*
X259998Y680715D02*
X249796Y521749D01*
G54D13*
X254998Y680715D02*
X224396Y521749D01*
G54D13*
X249998Y680715D02*
X198996Y521749D01*
G54D13*
X244998Y680715D02*
X173596Y521749D01*
G54D13*
X239998Y680715D02*
X148196Y521749D01*
G54D13*
X234998Y680715D02*
X122796Y521749D01*
G54D13*
X229998Y680715D02*
X97396Y521749D01*
G54D13*
X224998Y680715D02*
X71996Y521749D01*
G54D13*
X202498Y778215D02*
X43533Y931216D01*
G54D13*
X202498Y773215D02*
X43533Y905816D01*
G54D13*
X202498Y768215D02*
X43533Y880416D01*
G54D13*
X202498Y763215D02*
X43533Y855016D01*
G54D13*
X202498Y758215D02*
X43533Y829616D01*
G54D13*
X202498Y753215D02*
X43533Y804216D01*
G54D13*
X202498Y748215D02*
X43533Y778816D01*
G54D13*
X202498Y743215D02*
X43533Y753416D01*
G54D13*
X202498Y738215D02*
X43533Y728016D01*
G54D13*
X202498Y733215D02*
X43533Y702616D01*
G54D13*
X202498Y728215D02*
X43533Y677216D01*
G54D13*
X202498Y723215D02*
X43533Y651816D01*
G54D13*
X202498Y718215D02*
X43533Y626416D01*
G54D13*
X202498Y713215D02*
X43533Y601016D01*
G54D13*
X202498Y708215D02*
X43533Y575616D01*
G54D13*
X202498Y703215D02*
X43533Y550216D01*
M02*
