%FSLAX34Y34*%
%MOMM*%
%LNSMDMASK_TOP*%
G71*
G01*
%ADD10R, 0.20X1.00*%
%ADD11R, 1.00X0.20*%
%LPD*%
X224998Y685715D02*
G54D10*
D03*
X224998Y795715D02*
G54D10*
D03*
X229998Y685715D02*
G54D10*
D03*
X229998Y795715D02*
G54D10*
D03*
X234998Y685715D02*
G54D10*
D03*
X234998Y795715D02*
G54D10*
D03*
X239998Y685715D02*
G54D10*
D03*
X239998Y795715D02*
G54D10*
D03*
X244998Y685715D02*
G54D10*
D03*
X244998Y795715D02*
G54D10*
D03*
X249998Y685715D02*
G54D10*
D03*
X249998Y795715D02*
G54D10*
D03*
X254998Y685715D02*
G54D10*
D03*
X254998Y795715D02*
G54D10*
D03*
X259998Y685715D02*
G54D10*
D03*
X259998Y795715D02*
G54D10*
D03*
X264998Y685715D02*
G54D10*
D03*
X264998Y795715D02*
G54D10*
D03*
X269998Y685715D02*
G54D10*
D03*
X269998Y795715D02*
G54D10*
D03*
X274998Y685715D02*
G54D10*
D03*
X274998Y795715D02*
G54D10*
D03*
X279998Y685715D02*
G54D10*
D03*
X279998Y795715D02*
G54D10*
D03*
X284998Y685715D02*
G54D10*
D03*
X284998Y795715D02*
G54D10*
D03*
X289998Y685715D02*
G54D10*
D03*
X289998Y795715D02*
G54D10*
D03*
X294998Y685715D02*
G54D10*
D03*
X294998Y795715D02*
G54D10*
D03*
X299998Y685715D02*
G54D10*
D03*
X299998Y795715D02*
G54D10*
D03*
X207498Y703215D02*
G54D11*
D03*
X317498Y703215D02*
G54D11*
D03*
X207498Y708215D02*
G54D11*
D03*
X317498Y708215D02*
G54D11*
D03*
X207498Y713215D02*
G54D11*
D03*
X317498Y713215D02*
G54D11*
D03*
X207498Y718215D02*
G54D11*
D03*
X317498Y718215D02*
G54D11*
D03*
X207498Y723215D02*
G54D11*
D03*
X317498Y723215D02*
G54D11*
D03*
X207498Y728215D02*
G54D11*
D03*
X317498Y728215D02*
G54D11*
D03*
X207498Y733215D02*
G54D11*
D03*
X317498Y733215D02*
G54D11*
D03*
X207498Y738215D02*
G54D11*
D03*
X317498Y738215D02*
G54D11*
D03*
X207498Y743215D02*
G54D11*
D03*
X317498Y743215D02*
G54D11*
D03*
X207498Y748215D02*
G54D11*
D03*
X317498Y748215D02*
G54D11*
D03*
X207498Y753215D02*
G54D11*
D03*
X317498Y753215D02*
G54D11*
D03*
X207498Y758215D02*
G54D11*
D03*
X317498Y758215D02*
G54D11*
D03*
X207498Y763215D02*
G54D11*
D03*
X317498Y763215D02*
G54D11*
D03*
X207498Y768215D02*
G54D11*
D03*
X317498Y768215D02*
G54D11*
D03*
X207498Y773215D02*
G54D11*
D03*
X317498Y773215D02*
G54D11*
D03*
X207498Y778215D02*
G54D11*
D03*
X317498Y778215D02*
G54D11*
D03*
M02*
