%FSLAX34Y34*%
%MOMM*%
%LNCOPPER_BOTTOM*%
G71*
G01*
%ADD10C, 0.20*%
%ADD11C, 0.08*%
%LPD*%
G54D10*
X72001Y972375D02*
X65601Y972375D01*
X59301Y966075D01*
X59301Y953275D01*
X65601Y946975D01*
X78401Y946975D01*
X84701Y953275D01*
X84701Y966075D01*
X78401Y972375D01*
X72001Y972375D01*
G54D10*
X97401Y972375D02*
X91001Y972375D01*
X84701Y966075D01*
X84701Y953275D01*
X91001Y946975D01*
X103801Y946975D01*
X110101Y953275D01*
X110101Y966075D01*
X103801Y972375D01*
X97401Y972375D01*
G54D10*
X122801Y972375D02*
X116401Y972375D01*
X110101Y966075D01*
X110101Y953275D01*
X116401Y946975D01*
X129201Y946975D01*
X135501Y953275D01*
X135501Y966075D01*
X129201Y972375D01*
X122801Y972375D01*
G54D10*
X148201Y972375D02*
X141801Y972375D01*
X135501Y966075D01*
X135501Y953275D01*
X141801Y946975D01*
X154601Y946975D01*
X160901Y953275D01*
X160901Y966075D01*
X154601Y972375D01*
X148201Y972375D01*
G54D10*
X173601Y972375D02*
X167201Y972375D01*
X160901Y966075D01*
X160901Y953275D01*
X167201Y946975D01*
X180001Y946975D01*
X186301Y953275D01*
X186301Y966075D01*
X180001Y972375D01*
X173601Y972375D01*
G54D10*
X199001Y972375D02*
X192601Y972375D01*
X186301Y966075D01*
X186301Y953275D01*
X192601Y946975D01*
X205401Y946975D01*
X211701Y953275D01*
X211701Y966075D01*
X205401Y972375D01*
X199001Y972375D01*
G54D10*
X224401Y972375D02*
X218001Y972375D01*
X211701Y966075D01*
X211701Y953275D01*
X218001Y946975D01*
X230801Y946975D01*
X237101Y953275D01*
X237101Y966075D01*
X230801Y972375D01*
X224401Y972375D01*
G54D10*
X249801Y972375D02*
X243401Y972375D01*
X237101Y966075D01*
X237101Y953275D01*
X243401Y946975D01*
X256201Y946975D01*
X262501Y953275D01*
X262501Y966075D01*
X256201Y972375D01*
X249801Y972375D01*
G54D10*
X275201Y972375D02*
X268801Y972375D01*
X262501Y966075D01*
X262501Y953275D01*
X268801Y946975D01*
X281601Y946975D01*
X287901Y953275D01*
X287901Y966075D01*
X281601Y972375D01*
X275201Y972375D01*
G54D10*
X300601Y972375D02*
X294201Y972375D01*
X287901Y966075D01*
X287901Y953275D01*
X294201Y946975D01*
X307001Y946975D01*
X313301Y953275D01*
X313301Y966075D01*
X307001Y972375D01*
X300601Y972375D01*
G54D10*
X326001Y972375D02*
X319601Y972375D01*
X313301Y966075D01*
X313301Y953275D01*
X319601Y946975D01*
X332401Y946975D01*
X338701Y953275D01*
X338701Y966075D01*
X332401Y972375D01*
X326001Y972375D01*
G54D10*
X351401Y972375D02*
X345001Y972375D01*
X338701Y966075D01*
X338701Y953275D01*
X345001Y946975D01*
X357801Y946975D01*
X364101Y953275D01*
X364101Y966075D01*
X357801Y972375D01*
X351401Y972375D01*
G54D10*
X376801Y972375D02*
X370401Y972375D01*
X364101Y966075D01*
X364101Y953275D01*
X370401Y946975D01*
X383201Y946975D01*
X389501Y953275D01*
X389501Y966075D01*
X383201Y972375D01*
X376801Y972375D01*
G54D10*
X402201Y972375D02*
X395801Y972375D01*
X389501Y966075D01*
X389501Y953275D01*
X395801Y946975D01*
X408601Y946975D01*
X414901Y953275D01*
X414901Y966075D01*
X408601Y972375D01*
X402201Y972375D01*
G54D10*
X427601Y972375D02*
X421201Y972375D01*
X414901Y966075D01*
X414901Y953275D01*
X421201Y946975D01*
X434001Y946975D01*
X440301Y953275D01*
X440301Y966075D01*
X434001Y972375D01*
X427601Y972375D01*
G54D10*
X453000Y972375D02*
X446600Y972375D01*
X440301Y966075D01*
X440301Y953275D01*
X446600Y946975D01*
X459400Y946975D01*
X465701Y953275D01*
X465701Y966075D01*
X459400Y972375D01*
X453000Y972375D01*
G54D11*
X58301Y999375D02*
X58301Y999375D01*
G54D11*
X58301Y979875D02*
X58301Y979875D01*
G54D10*
X71996Y534449D02*
X65596Y534449D01*
X59296Y528149D01*
X59296Y515349D01*
X65596Y509049D01*
X78396Y509049D01*
X84696Y515349D01*
X84696Y528149D01*
X78396Y534449D01*
X71996Y534449D01*
G54D10*
X97396Y534449D02*
X90996Y534449D01*
X84696Y528149D01*
X84696Y515349D01*
X90996Y509049D01*
X103796Y509049D01*
X110096Y515349D01*
X110096Y528149D01*
X103796Y534449D01*
X97396Y534449D01*
G54D10*
X122796Y534449D02*
X116396Y534449D01*
X110096Y528149D01*
X110096Y515349D01*
X116396Y509049D01*
X129196Y509049D01*
X135496Y515349D01*
X135496Y528149D01*
X129196Y534449D01*
X122796Y534449D01*
G54D10*
X148196Y534449D02*
X141796Y534449D01*
X135496Y528149D01*
X135496Y515349D01*
X141796Y509049D01*
X154596Y509049D01*
X160896Y515349D01*
X160896Y528149D01*
X154596Y534449D01*
X148196Y534449D01*
G54D10*
X173596Y534449D02*
X167196Y534449D01*
X160896Y528149D01*
X160896Y515349D01*
X167196Y509049D01*
X179996Y509049D01*
X186296Y515349D01*
X186296Y528149D01*
X179996Y534449D01*
X173596Y534449D01*
G54D10*
X198996Y534449D02*
X192596Y534449D01*
X186296Y528149D01*
X186296Y515349D01*
X192596Y509049D01*
X205396Y509049D01*
X211696Y515349D01*
X211696Y528149D01*
X205396Y534449D01*
X198996Y534449D01*
G54D10*
X224396Y534449D02*
X217996Y534449D01*
X211696Y528149D01*
X211696Y515349D01*
X217996Y509049D01*
X230796Y509049D01*
X237096Y515349D01*
X237096Y528149D01*
X230796Y534449D01*
X224396Y534449D01*
G54D10*
X249796Y534449D02*
X243396Y534449D01*
X237096Y528149D01*
X237096Y515349D01*
X243396Y509049D01*
X256196Y509049D01*
X262496Y515349D01*
X262496Y528149D01*
X256196Y534449D01*
X249796Y534449D01*
G54D10*
X275196Y534449D02*
X268796Y534449D01*
X262496Y528149D01*
X262496Y515349D01*
X268796Y509049D01*
X281596Y509049D01*
X287896Y515349D01*
X287896Y528149D01*
X281596Y534449D01*
X275196Y534449D01*
G54D10*
X300596Y534449D02*
X294196Y534449D01*
X287896Y528149D01*
X287896Y515349D01*
X294196Y509049D01*
X306996Y509049D01*
X313296Y515349D01*
X313296Y528149D01*
X306996Y534449D01*
X300596Y534449D01*
G54D10*
X325996Y534449D02*
X319596Y534449D01*
X313296Y528149D01*
X313296Y515349D01*
X319596Y509049D01*
X332396Y509049D01*
X338696Y515349D01*
X338696Y528149D01*
X332396Y534449D01*
X325996Y534449D01*
G54D10*
X351396Y534449D02*
X344996Y534449D01*
X338696Y528149D01*
X338696Y515349D01*
X344996Y509049D01*
X357796Y509049D01*
X364096Y515349D01*
X364096Y528149D01*
X357796Y534449D01*
X351396Y534449D01*
G54D10*
X376796Y534449D02*
X370396Y534449D01*
X364096Y528149D01*
X364096Y515349D01*
X370396Y509049D01*
X383196Y509049D01*
X389496Y515349D01*
X389496Y528149D01*
X383196Y534449D01*
X376796Y534449D01*
G54D10*
X402196Y534449D02*
X395796Y534449D01*
X389496Y528149D01*
X389496Y515349D01*
X395796Y509049D01*
X408596Y509049D01*
X414896Y515349D01*
X414896Y528149D01*
X408596Y534449D01*
X402196Y534449D01*
G54D10*
X427596Y534449D02*
X421196Y534449D01*
X414896Y528149D01*
X414896Y515349D01*
X421196Y509049D01*
X433996Y509049D01*
X440296Y515349D01*
X440296Y528149D01*
X433996Y534449D01*
X427596Y534449D01*
G54D10*
X452996Y534449D02*
X446596Y534449D01*
X440296Y528149D01*
X440296Y515349D01*
X446596Y509049D01*
X459396Y509049D01*
X465696Y515349D01*
X465696Y528149D01*
X459396Y534449D01*
X452996Y534449D01*
G54D11*
X58296Y561449D02*
X58296Y561449D01*
G54D11*
X58296Y541949D02*
X58296Y541949D01*
G54D10*
X56233Y931216D02*
X56233Y937616D01*
X49933Y943916D01*
X37133Y943916D01*
X30833Y937616D01*
X30833Y924816D01*
X37133Y918516D01*
X49933Y918516D01*
X56233Y924816D01*
X56233Y931216D01*
G54D10*
X56233Y905816D02*
X56233Y912216D01*
X49933Y918516D01*
X37133Y918516D01*
X30833Y912216D01*
X30833Y899416D01*
X37133Y893116D01*
X49933Y893116D01*
X56233Y899416D01*
X56233Y905816D01*
G54D10*
X56233Y880416D02*
X56233Y886816D01*
X49933Y893116D01*
X37133Y893116D01*
X30833Y886816D01*
X30833Y874016D01*
X37133Y867716D01*
X49933Y867716D01*
X56233Y874016D01*
X56233Y880416D01*
G54D10*
X56233Y855016D02*
X56233Y861416D01*
X49933Y867716D01*
X37133Y867716D01*
X30833Y861416D01*
X30833Y848616D01*
X37133Y842316D01*
X49933Y842316D01*
X56233Y848616D01*
X56233Y855016D01*
G54D10*
X56233Y829616D02*
X56233Y836016D01*
X49933Y842316D01*
X37133Y842316D01*
X30833Y836016D01*
X30833Y823216D01*
X37133Y816916D01*
X49933Y816916D01*
X56233Y823216D01*
X56233Y829616D01*
G54D10*
X56233Y804216D02*
X56233Y810616D01*
X49933Y816916D01*
X37133Y816916D01*
X30833Y810616D01*
X30833Y797816D01*
X37133Y791516D01*
X49933Y791516D01*
X56233Y797816D01*
X56233Y804216D01*
G54D10*
X56233Y778816D02*
X56233Y785216D01*
X49933Y791516D01*
X37133Y791516D01*
X30833Y785216D01*
X30833Y772416D01*
X37133Y766116D01*
X49933Y766116D01*
X56233Y772416D01*
X56233Y778816D01*
G54D10*
X56233Y753416D02*
X56233Y759816D01*
X49933Y766116D01*
X37133Y766116D01*
X30833Y759816D01*
X30833Y747016D01*
X37133Y740716D01*
X49933Y740716D01*
X56233Y747016D01*
X56233Y753416D01*
G54D10*
X56233Y728016D02*
X56233Y734416D01*
X49933Y740716D01*
X37133Y740716D01*
X30833Y734416D01*
X30833Y721616D01*
X37133Y715316D01*
X49933Y715316D01*
X56233Y721616D01*
X56233Y728016D01*
G54D10*
X56233Y702616D02*
X56233Y709016D01*
X49933Y715316D01*
X37133Y715316D01*
X30833Y709016D01*
X30833Y696216D01*
X37133Y689916D01*
X49933Y689916D01*
X56233Y696216D01*
X56233Y702616D01*
G54D10*
X56233Y677216D02*
X56233Y683616D01*
X49933Y689916D01*
X37133Y689916D01*
X30833Y683616D01*
X30833Y670816D01*
X37133Y664516D01*
X49933Y664516D01*
X56233Y670816D01*
X56233Y677216D01*
G54D10*
X56233Y651816D02*
X56233Y658216D01*
X49933Y664516D01*
X37133Y664516D01*
X30833Y658216D01*
X30833Y645416D01*
X37133Y639116D01*
X49933Y639116D01*
X56233Y645416D01*
X56233Y651816D01*
G54D10*
X56233Y626416D02*
X56233Y632816D01*
X49933Y639116D01*
X37133Y639116D01*
X30833Y632816D01*
X30833Y620016D01*
X37133Y613716D01*
X49933Y613716D01*
X56233Y620016D01*
X56233Y626416D01*
G54D10*
X56233Y601016D02*
X56233Y607416D01*
X49933Y613716D01*
X37133Y613716D01*
X30833Y607416D01*
X30833Y594616D01*
X37133Y588316D01*
X49933Y588316D01*
X56233Y594616D01*
X56233Y601016D01*
G54D10*
X56233Y575616D02*
X56233Y582016D01*
X49933Y588316D01*
X37133Y588316D01*
X30833Y582016D01*
X30833Y569216D01*
X37133Y562916D01*
X49933Y562916D01*
X56233Y569216D01*
X56233Y575616D01*
G54D10*
X56233Y550216D02*
X56233Y556616D01*
X49933Y562916D01*
X37133Y562916D01*
X30833Y556616D01*
X30833Y543816D01*
X37133Y537516D01*
X49933Y537516D01*
X56233Y543816D01*
X56233Y550216D01*
G54D11*
X83233Y944916D02*
X83233Y944916D01*
G54D11*
X63733Y944916D02*
X63733Y944916D01*
G54D10*
X494164Y931211D02*
X494164Y937611D01*
X487864Y943911D01*
X475064Y943911D01*
X468764Y937611D01*
X468764Y924811D01*
X475064Y918511D01*
X487864Y918511D01*
X494164Y924811D01*
X494164Y931211D01*
G54D10*
X494164Y905811D02*
X494164Y912211D01*
X487864Y918511D01*
X475064Y918511D01*
X468764Y912211D01*
X468764Y899411D01*
X475064Y893111D01*
X487864Y893111D01*
X494164Y899411D01*
X494164Y905811D01*
G54D10*
X494164Y880411D02*
X494164Y886811D01*
X487864Y893111D01*
X475064Y893111D01*
X468764Y886811D01*
X468764Y874011D01*
X475064Y867711D01*
X487864Y867711D01*
X494164Y874011D01*
X494164Y880411D01*
G54D10*
X494164Y855011D02*
X494164Y861411D01*
X487864Y867711D01*
X475064Y867711D01*
X468764Y861411D01*
X468764Y848611D01*
X475064Y842311D01*
X487864Y842311D01*
X494164Y848611D01*
X494164Y855011D01*
G54D10*
X494164Y829611D02*
X494164Y836011D01*
X487864Y842311D01*
X475064Y842311D01*
X468764Y836011D01*
X468764Y823211D01*
X475064Y816911D01*
X487864Y816911D01*
X494164Y823211D01*
X494164Y829611D01*
G54D10*
X494164Y804211D02*
X494164Y810611D01*
X487864Y816911D01*
X475064Y816911D01*
X468764Y810611D01*
X468764Y797811D01*
X475064Y791511D01*
X487864Y791511D01*
X494164Y797811D01*
X494164Y804211D01*
G54D10*
X494164Y778811D02*
X494164Y785211D01*
X487864Y791511D01*
X475064Y791511D01*
X468764Y785211D01*
X468764Y772411D01*
X475064Y766111D01*
X487864Y766111D01*
X494164Y772411D01*
X494164Y778811D01*
G54D10*
X494164Y753411D02*
X494164Y759811D01*
X487864Y766111D01*
X475064Y766111D01*
X468764Y759811D01*
X468764Y747011D01*
X475064Y740711D01*
X487864Y740711D01*
X494164Y747011D01*
X494164Y753411D01*
G54D10*
X494164Y728011D02*
X494164Y734411D01*
X487864Y740711D01*
X475064Y740711D01*
X468764Y734411D01*
X468764Y721611D01*
X475064Y715311D01*
X487864Y715311D01*
X494164Y721611D01*
X494164Y728011D01*
G54D10*
X494164Y702611D02*
X494164Y709011D01*
X487864Y715311D01*
X475064Y715311D01*
X468764Y709011D01*
X468764Y696211D01*
X475064Y689911D01*
X487864Y689911D01*
X494164Y696211D01*
X494164Y702611D01*
G54D10*
X494164Y677211D02*
X494164Y683611D01*
X487864Y689911D01*
X475064Y689911D01*
X468764Y683611D01*
X468764Y670811D01*
X475064Y664511D01*
X487864Y664511D01*
X494164Y670811D01*
X494164Y677211D01*
G54D10*
X494164Y651811D02*
X494164Y658211D01*
X487864Y664511D01*
X475064Y664511D01*
X468764Y658211D01*
X468764Y645411D01*
X475064Y639111D01*
X487864Y639111D01*
X494164Y645411D01*
X494164Y651811D01*
G54D10*
X494164Y626411D02*
X494164Y632811D01*
X487864Y639111D01*
X475064Y639111D01*
X468764Y632811D01*
X468764Y620011D01*
X475064Y613711D01*
X487864Y613711D01*
X494164Y620011D01*
X494164Y626411D01*
G54D10*
X494164Y601011D02*
X494164Y607411D01*
X487864Y613711D01*
X475064Y613711D01*
X468764Y607411D01*
X468764Y594611D01*
X475064Y588311D01*
X487864Y588311D01*
X494164Y594611D01*
X494164Y601011D01*
G54D10*
X494164Y575611D02*
X494164Y582011D01*
X487864Y588311D01*
X475064Y588311D01*
X468764Y582011D01*
X468763Y569211D01*
X475064Y562911D01*
X487864Y562911D01*
X494164Y569211D01*
X494164Y575611D01*
G54D10*
X494164Y550211D02*
X494164Y556611D01*
X487864Y562911D01*
X475064Y562911D01*
X468764Y556611D01*
X468764Y543811D01*
X475064Y537511D01*
X487864Y537511D01*
X494164Y543811D01*
X494164Y550211D01*
G54D11*
X521164Y944911D02*
X521164Y944911D01*
G54D11*
X501664Y944911D02*
X501664Y944911D01*
M02*
