%FSLAX34Y34*%
%MOMM*%
%LNSOLDERMASK_BOTTOM*%
G71*
G01*
%ADD10C, 2.50*%
%ADD11R, 0.50X1.00*%
%ADD12R, 1.00X0.50*%
%LPD*%
X67001Y954675D02*
G54D10*
D03*
X92401Y954675D02*
G54D10*
D03*
X117801Y954675D02*
G54D10*
D03*
X143201Y954675D02*
G54D10*
D03*
X168601Y954675D02*
G54D10*
D03*
X194001Y954675D02*
G54D10*
D03*
X219401Y954675D02*
G54D10*
D03*
X244801Y954675D02*
G54D10*
D03*
X270201Y954675D02*
G54D10*
D03*
X295601Y954675D02*
G54D10*
D03*
X321001Y954675D02*
G54D10*
D03*
X346401Y954675D02*
G54D10*
D03*
X371801Y954675D02*
G54D10*
D03*
X397201Y954675D02*
G54D10*
D03*
X422601Y954675D02*
G54D10*
D03*
X448000Y954675D02*
G54D10*
D03*
X66986Y526632D02*
G54D10*
D03*
X92386Y526632D02*
G54D10*
D03*
X117786Y526632D02*
G54D10*
D03*
X143186Y526632D02*
G54D10*
D03*
X168586Y526632D02*
G54D10*
D03*
X193986Y526632D02*
G54D10*
D03*
X219386Y526632D02*
G54D10*
D03*
X244786Y526632D02*
G54D10*
D03*
X270186Y526632D02*
G54D10*
D03*
X295586Y526632D02*
G54D10*
D03*
X320986Y526632D02*
G54D10*
D03*
X346386Y526632D02*
G54D10*
D03*
X371786Y526632D02*
G54D10*
D03*
X397186Y526632D02*
G54D10*
D03*
X422586Y526632D02*
G54D10*
D03*
X447986Y526632D02*
G54D10*
D03*
X43533Y931216D02*
G54D10*
D03*
X43533Y905816D02*
G54D10*
D03*
X43533Y880416D02*
G54D10*
D03*
X43533Y855016D02*
G54D10*
D03*
X43533Y829616D02*
G54D10*
D03*
X43533Y804216D02*
G54D10*
D03*
X43533Y778816D02*
G54D10*
D03*
X43533Y753416D02*
G54D10*
D03*
X43533Y728016D02*
G54D10*
D03*
X43533Y702616D02*
G54D10*
D03*
X43533Y677216D02*
G54D10*
D03*
X43533Y651816D02*
G54D10*
D03*
X43533Y626416D02*
G54D10*
D03*
X43533Y601016D02*
G54D10*
D03*
X43533Y575616D02*
G54D10*
D03*
X43533Y550216D02*
G54D10*
D03*
X471464Y931211D02*
G54D10*
D03*
X471464Y905811D02*
G54D10*
D03*
X471464Y880411D02*
G54D10*
D03*
X471464Y855011D02*
G54D10*
D03*
X471464Y829611D02*
G54D10*
D03*
X471464Y804211D02*
G54D10*
D03*
X471464Y778811D02*
G54D10*
D03*
X471464Y753411D02*
G54D10*
D03*
X471464Y728011D02*
G54D10*
D03*
X471464Y702611D02*
G54D10*
D03*
X471464Y677211D02*
G54D10*
D03*
X471464Y651811D02*
G54D10*
D03*
X471464Y626411D02*
G54D10*
D03*
X471464Y601011D02*
G54D10*
D03*
X471464Y575611D02*
G54D10*
D03*
X471464Y550211D02*
G54D10*
D03*
X219988Y695598D02*
G54D11*
D03*
X219988Y785598D02*
G54D11*
D03*
X224988Y695598D02*
G54D11*
D03*
X224988Y785598D02*
G54D11*
D03*
X229988Y695598D02*
G54D11*
D03*
X229988Y785598D02*
G54D11*
D03*
X234988Y695598D02*
G54D11*
D03*
X234988Y785598D02*
G54D11*
D03*
X239988Y695598D02*
G54D11*
D03*
X239988Y785598D02*
G54D11*
D03*
X244988Y695598D02*
G54D11*
D03*
X244988Y785598D02*
G54D11*
D03*
X249988Y695598D02*
G54D11*
D03*
X249988Y785598D02*
G54D11*
D03*
X254988Y695598D02*
G54D11*
D03*
X254988Y785598D02*
G54D11*
D03*
X259988Y695598D02*
G54D11*
D03*
X259988Y785598D02*
G54D11*
D03*
X264988Y695598D02*
G54D11*
D03*
X264988Y785598D02*
G54D11*
D03*
X269988Y695598D02*
G54D11*
D03*
X269988Y785598D02*
G54D11*
D03*
X274988Y695598D02*
G54D11*
D03*
X274988Y785598D02*
G54D11*
D03*
X279988Y695598D02*
G54D11*
D03*
X279988Y785598D02*
G54D11*
D03*
X284988Y695598D02*
G54D11*
D03*
X284988Y785598D02*
G54D11*
D03*
X289988Y695598D02*
G54D11*
D03*
X289988Y785598D02*
G54D11*
D03*
X294988Y695598D02*
G54D11*
D03*
X294988Y785598D02*
G54D11*
D03*
X212488Y703098D02*
G54D12*
D03*
X302488Y703098D02*
G54D12*
D03*
X212488Y708098D02*
G54D12*
D03*
X302488Y708098D02*
G54D12*
D03*
X212488Y713098D02*
G54D12*
D03*
X302488Y713098D02*
G54D12*
D03*
X212488Y718098D02*
G54D12*
D03*
X302488Y718098D02*
G54D12*
D03*
X212488Y723098D02*
G54D12*
D03*
X302488Y723098D02*
G54D12*
D03*
X212488Y728098D02*
G54D12*
D03*
X302488Y728098D02*
G54D12*
D03*
X212488Y733098D02*
G54D12*
D03*
X302488Y733098D02*
G54D12*
D03*
X212488Y738098D02*
G54D12*
D03*
X302488Y738098D02*
G54D12*
D03*
X212488Y743098D02*
G54D12*
D03*
X302488Y743098D02*
G54D12*
D03*
X212488Y748098D02*
G54D12*
D03*
X302488Y748098D02*
G54D12*
D03*
X212488Y753098D02*
G54D12*
D03*
X302488Y753098D02*
G54D12*
D03*
X212488Y758098D02*
G54D12*
D03*
X302488Y758098D02*
G54D12*
D03*
X212488Y763098D02*
G54D12*
D03*
X302488Y763098D02*
G54D12*
D03*
X212488Y768098D02*
G54D12*
D03*
X302488Y768098D02*
G54D12*
D03*
X212488Y773098D02*
G54D12*
D03*
X302488Y773098D02*
G54D12*
D03*
X212488Y778098D02*
G54D12*
D03*
X302488Y778098D02*
G54D12*
D03*
M02*
