; Drill file
; Format: 3.3 (000.000)
M48
METRIC
T01C0.8
%
G05
G90
T01
X004350Y055020
X004350Y057560
X004350Y060100
X004350Y062640
X004350Y065180
X004350Y067720
X004350Y070260
X004350Y072800
X004350Y075340
X004350Y077880
X004350Y080420
X004350Y082960
X004350Y085500
X004350Y088040
X004350Y090580
X004350Y093120
X007200Y095970
X009740Y095970
X012280Y095970
X014820Y095970
X017360Y095970
X019900Y095970
X022440Y095970
X024980Y095970
X027520Y095970
X030060Y095970
X032600Y095970
X035140Y095970
X037680Y095970
X040220Y095970
X042760Y095970
X045300Y095970
X048150Y093120
X048150Y090580
X048150Y088040
X048150Y085500
X048150Y082960
X048150Y080420
X048150Y077880
X048150Y075340
X048150Y072800
X048150Y070260
X048150Y067720
X048150Y065180
X048150Y062640
X048150Y060100
X048150Y057560
X048150Y055020
X045300Y052170
X042760Y052170
X040220Y052170
X037680Y052170
X035140Y052170
X032600Y052170
X030060Y052170
X027520Y052170
X024980Y052170
X022440Y052170
X019900Y052170
X017360Y052170
X014820Y052170
X012280Y052170
X009740Y052170
X007200Y052170
M30
