<?xml version="1.0" standalone="no"?>
 <!DOCTYPE svg PUBLIC "-//W3C//DTD SVG 1.1//EN" 
 "http://www.w3.org/Graphics/SVG/1.1/DTD/svg11.dtd"> 
<svg xmlns="http://www.w3.org/2000/svg" version="1.1" 
    width="29.7002cm" height="21.0007cm" viewBox="0 0 116930 82680 ">
<title>SVG Picture created as AD7779 for Intel Edison Arduino-F.SilkS.svg date 2016/07/11 03:47:21 </title>
  <desc>Picture generated by PCBNEW </desc>
<g style="fill:#000000; fill-opacity:1;stroke:#000000; stroke-opacity:1;
stroke-linecap:round; stroke-linejoin:round; "
 transform="translate(0 0) scale(1 1)">
</g>
<g style="fill:#000000; fill-opacity:0.0; 
stroke:#000000; stroke-width:-0.000393701; stroke-opacity:1; 
stroke-linecap:round; stroke-linejoin:round;">
</g>
<g style="fill:#000000; fill-opacity:0.0; 
stroke:#000000; stroke-width:59.0551; stroke-opacity:1; 
stroke-linecap:round; stroke-linejoin:round;">
<path d="M45696 48765
L45303 48765
" />
<path d="M45303 48234
L45696 48234
" />
<path d="M45196 49765
L44803 49765
" />
<path d="M44803 49234
L45196 49234
" />
<path d="M23696 48765
L23303 48765
" />
<path d="M23303 48234
L23696 48234
" />
<path d="M32649 49350
L32649 49124
" />
<path d="M36350 45649
L36350 45875
" />
<path d="M32649 45649
L32649 45875
" />
<path d="M36350 49350
L36124 49350
" />
<path d="M36350 45649
L36124 45649
" />
<path d="M32649 45649
L32875 45649
" />
<path d="M32649 49350
L32875 49350
" />
<path d="M37500 23500
L37500 21500
" />
<path d="M37500 21500
L36500 21500
" />
<path d="M36500 21500
L36500 23500
" />
<path d="M36389 24610
L36389 24000
" />
<path d="M36500 23500
L37500 23500
" />
<path d="M37610 24000
L37610 24610
" />
<path d="M37610 24610
L36389 24610
" />
<path d="M32500 22500
L32500 24500
" />
<path d="M32500 24500
L33500 24500
" />
<path d="M33500 24500
L33500 22500
" />
<path d="M33610 21389
L33610 22000
" />
<path d="M33500 22500
L32500 22500
" />
<path d="M32389 22000
L32389 21389
" />
<path d="M32389 21389
L33610 21389
" />
<path d="M37500 28500
L37500 26500
" />
<path d="M37500 26500
L36500 26500
" />
<path d="M36500 26500
L36500 28500
" />
<path d="M36389 29610
L36389 29000
" />
<path d="M36500 28500
L37500 28500
" />
<path d="M37610 29000
L37610 29610
" />
<path d="M37610 29610
L36389 29610
" />
<path d="M32500 27500
L32500 29500
" />
<path d="M32500 29500
L33500 29500
" />
<path d="M33500 29500
L33500 27500
" />
<path d="M33610 26389
L33610 27000
" />
<path d="M33500 27500
L32500 27500
" />
<path d="M32389 27000
L32389 26389
" />
<path d="M32389 26389
L33610 26389
" />
<path d="M37500 33500
L37500 31500
" />
<path d="M37500 31500
L36500 31500
" />
<path d="M36500 31500
L36500 33500
" />
<path d="M36389 34610
L36389 34000
" />
<path d="M36500 33500
L37500 33500
" />
<path d="M37610 34000
L37610 34610
" />
<path d="M37610 34610
L36389 34610
" />
<path d="M27500 56500
L42500 56500
" />
<path d="M42500 56500
L42500 55500
" />
<path d="M42500 55500
L27500 55500
" />
<path d="M26389 55389
L27000 55389
" />
<path d="M27500 55500
L27500 56500
" />
<path d="M27000 56610
L26389 56610
" />
<path d="M26389 56610
L26389 55389
" />
<path d="M25500 40500
L25500 55500
" />
<path d="M25500 55500
L26500 55500
" />
<path d="M26500 55500
L26500 40500
" />
<path d="M26610 39389
L26610 40000
" />
<path d="M26500 40500
L25500 40500
" />
<path d="M25389 40000
L25389 39389
" />
<path d="M25389 39389
L26610 39389
" />
<path d="M41500 38500
L26500 38500
" />
<path d="M26500 38500
L26500 39500
" />
<path d="M26500 39500
L41500 39500
" />
<path d="M42610 39610
L42000 39610
" />
<path d="M41500 39500
L41500 38500
" />
<path d="M42000 38389
L42610 38389
" />
<path d="M42610 38389
L42610 39610
" />
<path d="M34881 32566
L34881 32685
" />
<path d="M34881 32685
L34763 32685
" />
<path d="M35236 33433
L35236 32566
" />
<path d="M35236 32566
L34763 32566
" />
<path d="M34763 32566
L34763 33433
" />
<path d="M34763 33433
L35236 33433
" />
<path d="M34881 27566
L34881 27685
" />
<path d="M34881 27685
L34763 27685
" />
<path d="M35236 28433
L35236 27566
" />
<path d="M35236 27566
L34763 27566
" />
<path d="M34763 27566
L34763 28433
" />
<path d="M34763 28433
L35236 28433
" />
<path d="M43500 27900
L43500 18900
" />
<path d="M43500 18900
L44500 18900
" />
<path d="M44500 18900
L44500 27900
" />
<path d="M43389 29010
L43389 28400
" />
<path d="M43500 27900
L44500 27900
" />
<path d="M44610 28400
L44610 29010
" />
<path d="M44610 29010
L43389 29010
" />
<path d="M35500 35550
L33500 35550
" />
<path d="M36610 35439
L36610 36050
" />
<path d="M36500 36550
L35500 36550
" />
<path d="M35500 36550
L35500 35550
" />
<path d="M33500 35550
L33500 37550
" />
<path d="M33500 37550
L35500 37550
" />
<path d="M36610 35439
L36000 35439
" />
<path d="M36500 37550
L36500 36550
" />
<path d="M35500 37550
L36500 37550
" />
<path d="M25500 23500
L25500 30500
" />
<path d="M25500 30500
L24500 30500
" />
<path d="M24500 30500
L24500 23500
" />
<path d="M25610 22389
L25610 23000
" />
<path d="M25500 23500
L24500 23500
" />
<path d="M24389 23000
L24389 22389
" />
<path d="M24389 22389
L25610 22389
" />
<path d="M43500 36500
L43500 29500
" />
<path d="M43500 29500
L44500 29500
" />
<path d="M44500 29500
L44500 36500
" />
<path d="M43389 37610
L43389 37000
" />
<path d="M43500 36500
L44500 36500
" />
<path d="M44610 37000
L44610 37610
" />
<path d="M44610 37610
L43389 37610
" />
<path d="M25500 32500
L25500 37500
" />
<path d="M25500 37500
L24500 37500
" />
<path d="M24500 37500
L24500 32500
" />
<path d="M25610 31389
L25610 32000
" />
<path d="M25500 32500
L24500 32500
" />
<path d="M24389 32000
L24389 31389
" />
<path d="M24389 31389
L25610 31389
" />
<path d="M38500 60500
L29500 60500
" />
<path d="M29500 60500
L29500 59500
" />
<path d="M29500 59500
L38500 59500
" />
<path d="M39610 60610
L39000 60610
" />
<path d="M38500 60500
L38500 59500
" />
<path d="M39000 59389
L39610 59389
" />
<path d="M39610 59389
L39610 60610
" />
<path d="M38500 58500
L29500 58500
" />
<path d="M29500 58500
L29500 57500
" />
<path d="M29500 57500
L38500 57500
" />
<path d="M39610 58610
L39000 58610
" />
<path d="M38500 58500
L38500 57500
" />
<path d="M39000 57389
L39610 57389
" />
<path d="M39610 57389
L39610 58610
" />
<path d="M34881 22566
L34881 22685
" />
<path d="M34881 22685
L34763 22685
" />
<path d="M35236 23433
L35236 22566
" />
<path d="M35236 22566
L34763 22566
" />
<path d="M34763 22566
L34763 23433
" />
<path d="M34763 23433
L35236 23433
" />
<path d="M43500 54500
L43500 39500
" />
<path d="M43500 39500
L42500 39500
" />
<path d="M42500 39500
L42500 54500
" />
<path d="M42389 55610
L42389 55000
" />
<path d="M42500 54500
L43500 54500
" />
<path d="M43610 55000
L43610 55610
" />
<path d="M43610 55610
L42389 55610
" />
<path d="M32500 32500
L32500 34500
" />
<path d="M32500 34500
L33500 34500
" />
<path d="M33500 34500
L33500 32500
" />
<path d="M33610 31389
L33610 32000
" />
<path d="M33500 32500
L32500 32500
" />
<path d="M32389 32000
L32389 31389
" />
<path d="M32389 31389
L33610 31389
" />
<path d="M35862 52113
L36137 52113
" />
<path d="M36137 52586
L35862 52586
" />
<path d="M39243 49207
L39243 48932
" />
<path d="M39716 48932
L39716 49207
" />
<path d="M35112 50643
L35387 50643
" />
<path d="M35387 51116
L35112 51116
" />
<path d="M39833 48217
L39833 47942
" />
<path d="M40306 47942
L40306 48217
" />
<path d="M32322 52133
L32597 52133
" />
<path d="M32597 52606
L32322 52606
" />
<path d="M31182 52132
L31457 52132
" />
<path d="M31457 52605
L31182 52605
" />
<path d="M29936 48832
L29936 49107
" />
<path d="M29463 49107
L29463 48832
" />
<path d="M29346 47912
L29346 48187
" />
<path d="M28873 48187
L28873 47912
" />
<path d="M37002 52183
L37277 52183
" />
<path d="M37277 52656
L37002 52656
" />
<path d="M30084 52722
L30359 52722
" />
<path d="M30359 53195
L30084 53195
" />
<path d="M35507 43276
L35232 43276
" />
<path d="M35232 42803
L35507 42803
" />
<path d="M35057 44456
L34782 44456
" />
<path d="M34782 43983
L35057 43983
" />
<path d="M39833 49467
L39833 49192
" />
<path d="M40306 49192
L40306 49467
" />
<path d="M40423 48317
L40423 48042
" />
<path d="M40896 48042
L40896 48317
" />
<path d="M35667 42686
L35392 42686
" />
<path d="M35392 42213
L35667 42213
" />
<path d="M35167 43866
L34892 43866
" />
<path d="M34892 43393
L35167 43393
" />
<path d="M34137 32236
L33862 32236
" />
<path d="M33862 31763
L34137 31763
" />
<path d="M35862 26763
L36137 26763
" />
<path d="M36137 27236
L35862 27236
" />
<path d="M34137 27236
L33862 27236
" />
<path d="M33862 26763
L34137 26763
" />
<path d="M35862 21763
L36137 21763
" />
<path d="M36137 22236
L35862 22236
" />
<path d="M34137 22236
L33862 22236
" />
<path d="M33862 21763
L34137 21763
" />
<path d="M37382 52773
L37657 52773
" />
<path d="M37657 53246
L37382 53246
" />
<path d="M28756 47992
L28756 48267
" />
<path d="M28283 48267
L28283 47992
" />
<path d="M29346 49072
L29346 49347
" />
<path d="M28873 49347
L28873 49072
" />
<path d="M31982 52723
L32257 52723
" />
<path d="M32257 53196
L31982 53196
" />
<path d="M35312 51233
L35587 51233
" />
<path d="M35587 51706
L35312 51706
" />
<path d="M35862 31763
L36137 31763
" />
<path d="M36137 32236
L35862 32236
" />
<path d="M27776 40511
L27649 40336
" />
<path d="M29347 42874
L29443 42804
" />
<path d="M31003 41670
L30908 41740
" />
<path d="M29337 39377
L29242 39447
" />
<path d="M27681 40581
L27776 40511
" />
<path d="M27681 40581
L29347 42874
" />
<path d="M28445 40025
L28318 39850
" />
<path d="M29337 39377
L31003 41670
" />
<path d="M30111 42318
L30239 42226
" />
<path d="M28445 40025
L28573 39933
" />
<path d="M24196 49765
L23803 49765
" />
<path d="M23803 49234
L24196 49234
" />
<path d="M44975 47930
L44843 47742
" />
<path d="M44750 47930
L44750 47536
L44900 47536
L44937 47555
L44956 47573
L44975 47611
L44975 47667
L44956 47705
L44937 47723
L44900 47742
L44750 47742
" />
<path d="M45143 47723
L45275 47723
" />
<path d="M45331 47930
L45143 47930
L45143 47536
L45331 47536
" />
<path d="M45631 47723
L45500 47723
" />
<path d="M45500 47930
L45500 47536
L45687 47536
" />
<path d="M45893 47536
L45893 47630
" />
<path d="M45799 47592
L45893 47630
L45987 47592
" />
<path d="M45837 47705
L45893 47630
L45949 47705
" />
<path d="M46193 47536
L46193 47630
" />
<path d="M46099 47592
L46193 47630
L46287 47592
" />
<path d="M46137 47705
L46193 47630
L46249 47705
" />
<path d="M44475 48930
L44343 48742
" />
<path d="M44250 48930
L44250 48536
L44400 48536
L44437 48555
L44456 48573
L44475 48611
L44475 48667
L44456 48705
L44437 48723
L44400 48742
L44250 48742
" />
<path d="M44643 48723
L44775 48723
" />
<path d="M44831 48930
L44643 48930
L44643 48536
L44831 48536
" />
<path d="M45131 48723
L45000 48723
" />
<path d="M45000 48930
L45000 48536
L45187 48536
" />
<path d="M45393 48536
L45393 48630
" />
<path d="M45299 48592
L45393 48630
L45487 48592
" />
<path d="M45337 48705
L45393 48630
L45449 48705
" />
<path d="M45693 48536
L45693 48630
" />
<path d="M45599 48592
L45693 48630
L45787 48592
" />
<path d="M45637 48705
L45693 48630
L45749 48705
" />
<path d="M22975 47930
L22843 47742
" />
<path d="M22750 47930
L22750 47536
L22900 47536
L22937 47555
L22956 47573
L22975 47611
L22975 47667
L22956 47705
L22937 47723
L22900 47742
L22750 47742
" />
<path d="M23143 47723
L23275 47723
" />
<path d="M23331 47930
L23143 47930
L23143 47536
L23331 47536
" />
<path d="M23631 47723
L23500 47723
" />
<path d="M23500 47930
L23500 47536
L23687 47536
" />
<path d="M23893 47536
L23893 47630
" />
<path d="M23799 47592
L23893 47630
L23987 47592
" />
<path d="M23837 47705
L23893 47630
L23949 47705
" />
<path d="M24193 47536
L24193 47630
" />
<path d="M24099 47592
L24193 47630
L24287 47592
" />
<path d="M24137 47705
L24193 47630
L24249 47705
" />
<path d="M34200 49597
L34200 49916
L34218 49953
L34237 49972
L34275 49991
L34350 49991
L34387 49972
L34406 49953
L34425 49916
L34425 49597
" />
<path d="M34818 49991
L34593 49991
" />
<path d="M34706 49991
L34706 49597
L34668 49653
L34631 49691
L34593 49709
" />
<path d="M36521 26185
L36521 25792
L36671 25792
L36709 25811
L36728 25829
L36746 25867
L36746 25923
L36728 25961
L36709 25979
L36671 25998
L36521 25998
" />
<path d="M37121 26185
L36896 26185
" />
<path d="M37009 26185
L37009 25792
L36971 25848
L36934 25886
L36896 25904
" />
<path d="M37253 25792
L37515 25792
L37346 26185
" />
<path d="M32521 20170
L32521 19776
L32671 19776
L32709 19795
L32728 19814
L32746 19851
L32746 19907
L32728 19945
L32709 19964
L32671 19982
L32521 19982
" />
<path d="M33121 20170
L32896 20170
" />
<path d="M33009 20170
L33009 19776
L32971 19832
L32934 19870
L32896 19889
" />
<path d="M33459 19776
L33384 19776
L33346 19795
L33328 19814
L33290 19870
L33271 19945
L33271 20095
L33290 20132
L33309 20151
L33346 20170
L33421 20170
L33459 20151
L33478 20132
L33496 20095
L33496 20001
L33478 19964
L33459 19945
L33421 19926
L33346 19926
L33309 19945
L33290 19964
L33271 20001
" />
<path d="M36521 31185
L36521 30792
L36671 30792
L36709 30811
L36728 30829
L36746 30867
L36746 30923
L36728 30961
L36709 30979
L36671 30998
L36521 30998
" />
<path d="M37121 31185
L36896 31185
" />
<path d="M37009 31185
L37009 30792
L36971 30848
L36934 30886
L36896 30904
" />
<path d="M37478 30792
L37290 30792
L37271 30979
L37290 30961
L37328 30942
L37421 30942
L37459 30961
L37478 30979
L37496 31017
L37496 31110
L37478 31148
L37459 31167
L37421 31185
L37328 31185
L37290 31167
L37271 31148
" />
<path d="M32521 25170
L32521 24776
L32671 24776
L32709 24795
L32728 24814
L32746 24851
L32746 24907
L32728 24945
L32709 24964
L32671 24982
L32521 24982
" />
<path d="M33121 25170
L32896 25170
" />
<path d="M33009 25170
L33009 24776
L32971 24832
L32934 24870
L32896 24889
" />
<path d="M33459 24907
L33459 25170
" />
<path d="M33365 24757
L33271 25038
L33515 25038
" />
<path d="M36521 36185
L36521 35792
L36671 35792
L36709 35811
L36728 35829
L36746 35867
L36746 35923
L36728 35961
L36709 35979
L36671 35998
L36521 35998
" />
<path d="M37121 36185
L36896 36185
" />
<path d="M37009 36185
L37009 35792
L36971 35848
L36934 35886
L36896 35904
" />
<path d="M37253 35792
L37496 35792
L37365 35942
L37421 35942
L37459 35961
L37478 35979
L37496 36017
L37496 36110
L37478 36148
L37459 36167
L37421 36185
L37309 36185
L37271 36167
L37253 36148
" />
<path d="M25170 56478
L24776 56478
L24776 56328
L24795 56290
L24814 56271
L24851 56253
L24907 56253
L24945 56271
L24964 56290
L24982 56328
L24982 56478
" />
<path d="M25170 55878
L25170 56103
" />
<path d="M25170 55990
L24776 55990
L24832 56028
L24870 56065
L24889 56103
" />
<path d="M25170 55503
L25170 55728
" />
<path d="M25170 55615
L24776 55615
L24832 55653
L24870 55690
L24889 55728
" />
<path d="M25521 38170
L25521 37776
L25671 37776
L25709 37795
L25728 37814
L25746 37851
L25746 37907
L25728 37945
L25709 37964
L25671 37982
L25521 37982
" />
<path d="M26121 38170
L25896 38170
" />
<path d="M26009 38170
L26009 37776
L25971 37832
L25934 37870
L25896 37889
" />
<path d="M26365 37776
L26403 37776
L26440 37795
L26459 37814
L26478 37851
L26496 37926
L26496 38020
L26478 38095
L26459 38132
L26440 38151
L26403 38170
L26365 38170
L26328 38151
L26309 38132
L26290 38095
L26271 38020
L26271 37926
L26290 37851
L26309 37814
L26328 37795
L26365 37776
" />
<path d="M44185 39290
L43792 39290
L43792 39140
L43811 39103
L43829 39084
L43867 39065
L43923 39065
L43961 39084
L43979 39103
L43998 39140
L43998 39290
" />
<path d="M44185 38878
L44185 38803
L44167 38765
L44148 38746
L44092 38709
L44017 38690
L43867 38690
L43829 38709
L43811 38728
L43792 38765
L43792 38840
L43811 38878
L43829 38896
L43867 38915
L43961 38915
L43998 38896
L44017 38878
L44035 38840
L44035 38765
L44017 38728
L43998 38709
L43961 38690
" />
<path d="M34941 33890
L35260 33890
L35298 33871
L35316 33853
L35335 33815
L35335 33740
L35316 33703
L35298 33684
L35260 33665
L34941 33665
" />
<path d="M34979 33496
L34960 33478
L34941 33440
L34941 33346
L34960 33309
L34979 33290
L35016 33271
L35054 33271
L35110 33290
L35335 33515
L35335 33271
" />
<path d="M34941 28890
L35260 28890
L35298 28871
L35316 28853
L35335 28815
L35335 28740
L35316 28703
L35298 28684
L35260 28665
L34941 28665
" />
<path d="M34941 28515
L34941 28271
L35091 28403
L35091 28346
L35110 28309
L35129 28290
L35166 28271
L35260 28271
L35298 28290
L35316 28309
L35335 28346
L35335 28459
L35316 28496
L35298 28515
" />
<path d="M43709 30585
L43709 30192
L43859 30192
L43896 30211
L43915 30229
L43934 30267
L43934 30323
L43915 30361
L43896 30379
L43859 30398
L43709 30398
" />
<path d="M44309 30585
L44084 30585
" />
<path d="M44196 30585
L44196 30192
L44159 30248
L44121 30286
L44084 30304
" />
<path d="M38185 36340
L37792 36340
L37792 36190
L37811 36153
L37829 36134
L37867 36115
L37923 36115
L37961 36134
L37979 36153
L37998 36190
L37998 36340
" />
<path d="M37829 35965
L37811 35946
L37792 35909
L37792 35815
L37811 35778
L37829 35759
L37867 35740
L37904 35740
L37961 35759
L38185 35984
L38185 35740
" />
<path d="M24709 21170
L24709 20776
L24859 20776
L24896 20795
L24915 20814
L24934 20851
L24934 20907
L24915 20945
L24896 20964
L24859 20982
L24709 20982
" />
<path d="M25065 20776
L25309 20776
L25178 20926
L25234 20926
L25271 20945
L25290 20964
L25309 21001
L25309 21095
L25290 21132
L25271 21151
L25234 21170
L25121 21170
L25084 21151
L25065 21132
" />
<path d="M43709 39185
L43709 38792
L43859 38792
L43896 38811
L43915 38829
L43934 38867
L43934 38923
L43915 38961
L43896 38979
L43859 38998
L43709 38998
" />
<path d="M44271 38923
L44271 39185
" />
<path d="M44178 38773
L44084 39054
L44328 39054
" />
<path d="M24709 30170
L24709 29776
L24859 29776
L24896 29795
L24915 29814
L24934 29851
L24934 29907
L24915 29945
L24896 29964
L24859 29982
L24709 29982
" />
<path d="M25290 29776
L25103 29776
L25084 29964
L25103 29945
L25140 29926
L25234 29926
L25271 29945
L25290 29964
L25309 30001
L25309 30095
L25290 30132
L25271 30151
L25234 30170
L25140 30170
L25103 30151
L25084 30132
" />
<path d="M41185 60290
L40792 60290
L40792 60140
L40811 60103
L40829 60084
L40867 60065
L40923 60065
L40961 60084
L40979 60103
L40998 60140
L40998 60290
" />
<path d="M40792 59728
L40792 59803
L40811 59840
L40829 59859
L40886 59896
L40961 59915
L41110 59915
L41148 59896
L41167 59878
L41185 59840
L41185 59765
L41167 59728
L41148 59709
L41110 59690
L41017 59690
L40979 59709
L40961 59728
L40942 59765
L40942 59840
L40961 59878
L40979 59896
L41017 59915
" />
<path d="M41185 58290
L40792 58290
L40792 58140
L40811 58103
L40829 58084
L40867 58065
L40923 58065
L40961 58084
L40979 58103
L40998 58140
L40998 58290
" />
<path d="M40792 57934
L40792 57671
L41185 57840
" />
<path d="M34941 23890
L35260 23890
L35298 23871
L35316 23853
L35335 23815
L35335 23740
L35316 23703
L35298 23684
L35260 23665
L34941 23665
" />
<path d="M35073 23309
L35335 23309
" />
<path d="M34923 23403
L35204 23496
L35204 23253
" />
<path d="M42709 57185
L42709 56792
L42859 56792
L42896 56811
L42915 56829
L42934 56867
L42934 56923
L42915 56961
L42896 56979
L42859 56998
L42709 56998
" />
<path d="M43159 56961
L43121 56942
L43103 56923
L43084 56886
L43084 56867
L43103 56829
L43121 56811
L43159 56792
L43234 56792
L43271 56811
L43290 56829
L43309 56867
L43309 56886
L43290 56923
L43271 56942
L43234 56961
L43159 56961
L43121 56979
L43103 56998
L43084 57035
L43084 57110
L43103 57148
L43121 57167
L43159 57185
L43234 57185
L43271 57167
L43290 57148
L43309 57110
L43309 57035
L43290 56998
L43271 56979
L43234 56961
" />
<path d="M32521 30170
L32521 29776
L32671 29776
L32709 29795
L32728 29814
L32746 29851
L32746 29907
L32728 29945
L32709 29964
L32671 29982
L32521 29982
" />
<path d="M33121 30170
L32896 30170
" />
<path d="M33009 30170
L33009 29776
L32971 29832
L32934 29870
L32896 29889
" />
<path d="M33271 29814
L33290 29795
L33328 29776
L33421 29776
L33459 29795
L33478 29814
L33496 29851
L33496 29889
L33478 29945
L33253 30170
L33496 30170
" />
<path d="M35746 51742
L35728 51761
L35671 51780
L35634 51780
L35578 51761
L35540 51723
L35521 51686
L35503 51611
L35503 51555
L35521 51480
L35540 51442
L35578 51405
L35634 51386
L35671 51386
L35728 51405
L35746 51423
" />
<path d="M36121 51780
L35896 51780
" />
<path d="M36009 51780
L36009 51386
L35971 51442
L35934 51480
L35896 51498
" />
<path d="M36309 51780
L36384 51780
L36421 51761
L36440 51742
L36478 51686
L36496 51611
L36496 51461
L36478 51423
L36459 51405
L36421 51386
L36346 51386
L36309 51405
L36290 51423
L36271 51461
L36271 51555
L36290 51592
L36309 51611
L36346 51630
L36421 51630
L36459 51611
L36478 51592
L36496 51555
" />
<path d="M38872 49323
L38891 49341
L38910 49398
L38910 49435
L38891 49491
L38853 49529
L38816 49548
L38741 49566
L38685 49566
L38610 49548
L38572 49529
L38535 49491
L38516 49435
L38516 49398
L38535 49341
L38553 49323
" />
<path d="M38910 48948
L38910 49173
" />
<path d="M38910 49060
L38516 49060
L38572 49098
L38610 49135
L38628 49173
" />
<path d="M38685 48723
L38666 48760
L38647 48779
L38610 48798
L38591 48798
L38553 48779
L38535 48760
L38516 48723
L38516 48648
L38535 48610
L38553 48591
L38591 48573
L38610 48573
L38647 48591
L38666 48610
L38685 48648
L38685 48723
L38703 48760
L38722 48779
L38760 48798
L38835 48798
L38872 48779
L38891 48760
L38910 48723
L38910 48648
L38891 48610
L38872 48591
L38835 48573
L38760 48573
L38722 48591
L38703 48610
L38685 48648
" />
<path d="M34996 50272
L34978 50291
L34921 50310
L34884 50310
L34828 50291
L34790 50253
L34771 50216
L34753 50141
L34753 50085
L34771 50010
L34790 49972
L34828 49935
L34884 49916
L34921 49916
L34978 49935
L34996 49953
" />
<path d="M35371 50310
L35146 50310
" />
<path d="M35259 50310
L35259 49916
L35221 49972
L35184 50010
L35146 50028
" />
<path d="M35728 49916
L35540 49916
L35521 50103
L35540 50085
L35578 50066
L35671 50066
L35709 50085
L35728 50103
L35746 50141
L35746 50235
L35728 50272
L35709 50291
L35671 50310
L35578 50310
L35540 50291
L35521 50272
" />
<path d="M39462 48333
L39481 48351
L39500 48408
L39500 48445
L39481 48501
L39443 48539
L39406 48558
L39331 48576
L39275 48576
L39200 48558
L39162 48539
L39125 48501
L39106 48445
L39106 48408
L39125 48351
L39143 48333
" />
<path d="M39500 47958
L39500 48183
" />
<path d="M39500 48070
L39106 48070
L39162 48108
L39200 48145
L39218 48183
" />
<path d="M39237 47620
L39500 47620
" />
<path d="M39087 47714
L39368 47808
L39368 47564
" />
<path d="M32206 51762
L32188 51781
L32131 51800
L32094 51800
L32038 51781
L32000 51743
L31981 51706
L31963 51631
L31963 51575
L31981 51500
L32000 51462
L32038 51425
L32094 51406
L32131 51406
L32188 51425
L32206 51443
" />
<path d="M32581 51800
L32356 51800
" />
<path d="M32469 51800
L32469 51406
L32431 51462
L32394 51500
L32356 51518
" />
<path d="M32956 51800
L32731 51800
" />
<path d="M32844 51800
L32844 51406
L32806 51462
L32769 51500
L32731 51518
" />
<path d="M31254 51761
L31235 51780
L31179 51799
L31141 51799
L31085 51780
L31048 51742
L31029 51705
L31010 51630
L31010 51574
L31029 51499
L31048 51461
L31085 51424
L31141 51405
L31179 51405
L31235 51424
L31254 51442
" />
<path d="M31441 51799
L31516 51799
L31554 51780
L31573 51761
L31610 51705
L31629 51630
L31629 51480
L31610 51442
L31591 51424
L31554 51405
L31479 51405
L31441 51424
L31423 51442
L31404 51480
L31404 51574
L31423 51611
L31441 51630
L31479 51649
L31554 51649
L31591 51630
L31610 51611
L31629 51574
" />
<path d="M30588 49035
L30607 49054
L30626 49110
L30626 49148
L30607 49204
L30569 49241
L30532 49260
L30457 49279
L30401 49279
L30326 49260
L30288 49241
L30251 49204
L30232 49148
L30232 49110
L30251 49054
L30269 49035
" />
<path d="M30232 48904
L30232 48641
L30626 48810
" />
<path d="M29998 48115
L30017 48134
L30036 48190
L30036 48228
L30017 48284
L29979 48321
L29942 48340
L29867 48359
L29811 48359
L29736 48340
L29698 48321
L29661 48284
L29642 48228
L29642 48190
L29661 48134
L29679 48115
" />
<path d="M29642 47984
L29642 47740
L29792 47871
L29792 47815
L29811 47778
L29829 47759
L29867 47740
L29961 47740
L29998 47759
L30017 47778
L30036 47815
L30036 47928
L30017 47965
L29998 47984
" />
<path d="M36886 51812
L36868 51831
L36811 51850
L36774 51850
L36718 51831
L36680 51793
L36661 51756
L36643 51681
L36643 51625
L36661 51550
L36680 51512
L36718 51475
L36774 51456
L36811 51456
L36868 51475
L36886 51493
" />
<path d="M37036 51493
L37055 51475
L37093 51456
L37186 51456
L37224 51475
L37243 51493
L37261 51531
L37261 51568
L37243 51625
L37018 51850
L37261 51850
" />
<path d="M37636 51850
L37411 51850
" />
<path d="M37524 51850
L37524 51456
L37486 51512
L37449 51550
L37411 51568
" />
<path d="M29968 52351
L29950 52370
L29893 52389
L29856 52389
L29800 52370
L29762 52332
L29743 52295
L29725 52220
L29725 52164
L29743 52089
L29762 52051
L29800 52014
L29856 51995
L29893 51995
L29950 52014
L29968 52032
" />
<path d="M30343 52389
L30118 52389
" />
<path d="M30231 52389
L30231 51995
L30193 52051
L30156 52089
L30118 52107
" />
<path d="M30587 51995
L30625 51995
L30662 52014
L30681 52032
L30700 52070
L30718 52145
L30718 52239
L30700 52314
L30681 52351
L30662 52370
L30625 52389
L30587 52389
L30550 52370
L30531 52351
L30512 52314
L30493 52239
L30493 52145
L30512 52070
L30531 52032
L30550 52014
L30587 51995
" />
<path d="M35304 43928
L35285 43947
L35229 43966
L35191 43966
L35135 43947
L35098 43909
L35079 43872
L35060 43797
L35060 43741
L35079 43666
L35098 43628
L35135 43591
L35191 43572
L35229 43572
L35285 43591
L35304 43609
" />
<path d="M35641 43572
L35566 43572
L35529 43591
L35510 43609
L35473 43666
L35454 43741
L35454 43891
L35473 43928
L35491 43947
L35529 43966
L35604 43966
L35641 43947
L35660 43928
L35679 43891
L35679 43797
L35660 43759
L35641 43741
L35604 43722
L35529 43722
L35491 43741
L35473 43759
L35454 43797
" />
<path d="M34854 45108
L34835 45127
L34779 45146
L34741 45146
L34685 45127
L34648 45089
L34629 45052
L34610 44977
L34610 44921
L34629 44846
L34648 44808
L34685 44771
L34741 44752
L34779 44752
L34835 44771
L34854 44789
" />
<path d="M35004 44789
L35023 44771
L35060 44752
L35154 44752
L35191 44771
L35210 44789
L35229 44827
L35229 44864
L35210 44921
L34985 45146
L35229 45146
" />
<path d="M39462 49583
L39481 49601
L39500 49658
L39500 49695
L39481 49751
L39443 49789
L39406 49808
L39331 49826
L39275 49826
L39200 49808
L39162 49789
L39125 49751
L39106 49695
L39106 49658
L39125 49601
L39143 49583
" />
<path d="M39500 49208
L39500 49433
" />
<path d="M39500 49320
L39106 49320
L39162 49358
L39200 49395
L39218 49433
" />
<path d="M39106 49076
L39106 48814
L39500 48983
" />
<path d="M40052 48433
L40071 48451
L40090 48508
L40090 48545
L40071 48601
L40033 48639
L39996 48658
L39921 48676
L39865 48676
L39790 48658
L39752 48639
L39715 48601
L39696 48545
L39696 48508
L39715 48451
L39733 48433
" />
<path d="M40090 48058
L40090 48283
" />
<path d="M40090 48170
L39696 48170
L39752 48208
L39790 48245
L39808 48283
" />
<path d="M39696 47926
L39696 47683
L39846 47814
L39846 47758
L39865 47720
L39883 47701
L39921 47683
L40015 47683
L40052 47701
L40071 47720
L40090 47758
L40090 47870
L40071 47908
L40052 47926
" />
<path d="M35464 43338
L35445 43357
L35389 43376
L35351 43376
L35295 43357
L35258 43319
L35239 43282
L35220 43207
L35220 43151
L35239 43076
L35258 43038
L35295 43001
L35351 42982
L35389 42982
L35445 43001
L35464 43019
" />
<path d="M35820 42982
L35633 42982
L35614 43169
L35633 43151
L35670 43132
L35764 43132
L35801 43151
L35820 43169
L35839 43207
L35839 43301
L35820 43338
L35801 43357
L35764 43376
L35670 43376
L35633 43357
L35614 43338
" />
<path d="M34964 44518
L34945 44537
L34889 44556
L34851 44556
L34795 44537
L34758 44499
L34739 44462
L34720 44387
L34720 44331
L34739 44256
L34758 44218
L34795 44181
L34851 44162
L34889 44162
L34945 44181
L34964 44199
" />
<path d="M35339 44556
L35114 44556
" />
<path d="M35226 44556
L35226 44162
L35189 44218
L35151 44256
L35114 44274
" />
<path d="M33746 32888
L33728 32907
L33671 32926
L33634 32926
L33578 32907
L33540 32869
L33521 32832
L33503 32757
L33503 32701
L33521 32626
L33540 32588
L33578 32551
L33634 32532
L33671 32532
L33728 32551
L33746 32569
" />
<path d="M33896 32569
L33915 32551
L33953 32532
L34046 32532
L34084 32551
L34103 32569
L34121 32607
L34121 32644
L34103 32701
L33878 32926
L34121 32926
" />
<path d="M34253 32532
L34496 32532
L34365 32682
L34421 32682
L34459 32701
L34478 32719
L34496 32757
L34496 32851
L34478 32888
L34459 32907
L34421 32926
L34309 32926
L34271 32907
L34253 32888
" />
<path d="M35746 26392
L35728 26411
L35671 26430
L35634 26430
L35578 26411
L35540 26373
L35521 26336
L35503 26261
L35503 26205
L35521 26130
L35540 26092
L35578 26055
L35634 26036
L35671 26036
L35728 26055
L35746 26073
" />
<path d="M35896 26073
L35915 26055
L35953 26036
L36046 26036
L36084 26055
L36103 26073
L36121 26111
L36121 26148
L36103 26205
L35878 26430
L36121 26430
" />
<path d="M36459 26167
L36459 26430
" />
<path d="M36365 26017
L36271 26298
L36515 26298
" />
<path d="M33746 27888
L33728 27907
L33671 27926
L33634 27926
L33578 27907
L33540 27869
L33521 27832
L33503 27757
L33503 27701
L33521 27626
L33540 27588
L33578 27551
L33634 27532
L33671 27532
L33728 27551
L33746 27569
" />
<path d="M33896 27569
L33915 27551
L33953 27532
L34046 27532
L34084 27551
L34103 27569
L34121 27607
L34121 27644
L34103 27701
L33878 27926
L34121 27926
" />
<path d="M34478 27532
L34290 27532
L34271 27719
L34290 27701
L34328 27682
L34421 27682
L34459 27701
L34478 27719
L34496 27757
L34496 27851
L34478 27888
L34459 27907
L34421 27926
L34328 27926
L34290 27907
L34271 27888
" />
<path d="M35746 21392
L35728 21411
L35671 21430
L35634 21430
L35578 21411
L35540 21373
L35521 21336
L35503 21261
L35503 21205
L35521 21130
L35540 21092
L35578 21055
L35634 21036
L35671 21036
L35728 21055
L35746 21073
" />
<path d="M35896 21073
L35915 21055
L35953 21036
L36046 21036
L36084 21055
L36103 21073
L36121 21111
L36121 21148
L36103 21205
L35878 21430
L36121 21430
" />
<path d="M36459 21036
L36384 21036
L36346 21055
L36328 21073
L36290 21130
L36271 21205
L36271 21355
L36290 21392
L36309 21411
L36346 21430
L36421 21430
L36459 21411
L36478 21392
L36496 21355
L36496 21261
L36478 21223
L36459 21205
L36421 21186
L36346 21186
L36309 21205
L36290 21223
L36271 21261
" />
<path d="M33746 22888
L33728 22907
L33671 22926
L33634 22926
L33578 22907
L33540 22869
L33521 22832
L33503 22757
L33503 22701
L33521 22626
L33540 22588
L33578 22551
L33634 22532
L33671 22532
L33728 22551
L33746 22569
" />
<path d="M33896 22569
L33915 22551
L33953 22532
L34046 22532
L34084 22551
L34103 22569
L34121 22607
L34121 22644
L34103 22701
L33878 22926
L34121 22926
" />
<path d="M34253 22532
L34515 22532
L34346 22926
" />
<path d="M37266 52402
L37248 52421
L37191 52440
L37154 52440
L37098 52421
L37060 52383
L37041 52346
L37023 52271
L37023 52215
L37041 52140
L37060 52102
L37098 52065
L37154 52046
L37191 52046
L37248 52065
L37266 52083
" />
<path d="M37416 52083
L37435 52065
L37473 52046
L37566 52046
L37604 52065
L37623 52083
L37641 52121
L37641 52158
L37623 52215
L37398 52440
L37641 52440
" />
<path d="M37791 52083
L37810 52065
L37848 52046
L37941 52046
L37979 52065
L37998 52083
L38016 52121
L38016 52158
L37998 52215
L37773 52440
L38016 52440
" />
<path d="M29408 48195
L29427 48214
L29446 48270
L29446 48308
L29427 48364
L29389 48401
L29352 48420
L29277 48439
L29221 48439
L29146 48420
L29108 48401
L29071 48364
L29052 48308
L29052 48270
L29071 48214
L29089 48195
" />
<path d="M29183 47858
L29446 47858
" />
<path d="M29033 47951
L29314 48045
L29314 47801
" />
<path d="M29998 49275
L30017 49294
L30036 49350
L30036 49388
L30017 49444
L29979 49481
L29942 49500
L29867 49519
L29811 49519
L29736 49500
L29698 49481
L29661 49444
L29642 49388
L29642 49350
L29661 49294
L29679 49275
" />
<path d="M29811 49050
L29792 49088
L29773 49106
L29736 49125
L29717 49125
L29679 49106
L29661 49088
L29642 49050
L29642 48975
L29661 48938
L29679 48919
L29717 48900
L29736 48900
L29773 48919
L29792 48938
L29811 48975
L29811 49050
L29829 49088
L29848 49106
L29886 49125
L29961 49125
L29998 49106
L30017 49088
L30036 49050
L30036 48975
L30017 48938
L29998 48919
L29961 48900
L29886 48900
L29848 48919
L29829 48938
L29811 48975
" />
<path d="M31866 52352
L31848 52371
L31791 52390
L31754 52390
L31698 52371
L31660 52333
L31641 52296
L31623 52221
L31623 52165
L31641 52090
L31660 52052
L31698 52015
L31754 51996
L31791 51996
L31848 52015
L31866 52033
" />
<path d="M32241 52390
L32016 52390
" />
<path d="M32129 52390
L32129 51996
L32091 52052
L32054 52090
L32016 52108
" />
<path d="M32391 52033
L32410 52015
L32448 51996
L32541 51996
L32579 52015
L32598 52033
L32616 52071
L32616 52108
L32598 52165
L32373 52390
L32616 52390
" />
<path d="M35196 50862
L35178 50881
L35121 50900
L35084 50900
L35028 50881
L34990 50843
L34971 50806
L34953 50731
L34953 50675
L34971 50600
L34990 50562
L35028 50525
L35084 50506
L35121 50506
L35178 50525
L35196 50543
" />
<path d="M35571 50900
L35346 50900
" />
<path d="M35459 50900
L35459 50506
L35421 50562
L35384 50600
L35346 50618
" />
<path d="M35909 50506
L35834 50506
L35796 50525
L35778 50543
L35740 50600
L35721 50675
L35721 50825
L35740 50862
L35759 50881
L35796 50900
L35871 50900
L35909 50881
L35928 50862
L35946 50825
L35946 50731
L35928 50693
L35909 50675
L35871 50656
L35796 50656
L35759 50675
L35740 50693
L35721 50731
" />
<path d="M35746 31392
L35728 31411
L35671 31430
L35634 31430
L35578 31411
L35540 31373
L35521 31336
L35503 31261
L35503 31205
L35521 31130
L35540 31092
L35578 31055
L35634 31036
L35671 31036
L35728 31055
L35746 31073
" />
<path d="M35896 31073
L35915 31055
L35953 31036
L36046 31036
L36084 31055
L36103 31073
L36121 31111
L36121 31148
L36103 31205
L35878 31430
L36121 31430
" />
<path d="M36365 31036
L36403 31036
L36440 31055
L36459 31073
L36478 31111
L36496 31186
L36496 31280
L36478 31355
L36459 31392
L36440 31411
L36403 31430
L36365 31430
L36328 31411
L36309 31392
L36290 31355
L36271 31280
L36271 31186
L36290 31111
L36309 31073
L36328 31055
L36365 31036
" />
<path d="M30513 40043
L30362 40153
" />
<path d="M30603 39815
L30513 40043
L30757 40028
" />
<path d="M30637 40532
L30505 40350
" />
<path d="M30571 40441
L30890 40210
L30822 40212
L30770 40204
L30733 40185
" />
<path d="M23475 48930
L23343 48742
" />
<path d="M23250 48930
L23250 48536
L23400 48536
L23437 48555
L23456 48573
L23475 48611
L23475 48667
L23456 48705
L23437 48723
L23400 48742
L23250 48742
" />
<path d="M23643 48723
L23775 48723
" />
<path d="M23831 48930
L23643 48930
L23643 48536
L23831 48536
" />
<path d="M24131 48723
L24000 48723
" />
<path d="M24000 48930
L24000 48536
L24187 48536
" />
<path d="M24393 48536
L24393 48630
" />
<path d="M24299 48592
L24393 48630
L24487 48592
" />
<path d="M24337 48705
L24393 48630
L24449 48705
" />
<path d="M24693 48536
L24693 48630
" />
<path d="M24599 48592
L24693 48630
L24787 48592
" />
<path d="M24637 48705
L24693 48630
L24749 48705
" />
</g> 
</svg>
