<?xml version="1.0" standalone="no"?>
 <!DOCTYPE svg PUBLIC "-//W3C//DTD SVG 1.1//EN" 
 "http://www.w3.org/Graphics/SVG/1.1/DTD/svg11.dtd"> 
<svg xmlns="http://www.w3.org/2000/svg" version="1.1" 
    width="29.7002cm" height="21.0007cm" viewBox="0 0 116930 82680 ">
<title>SVG Picture created as AD7779 for Intel Edison Arduino-B.Cu.svg date 2016/07/11 03:47:21 </title>
  <desc>Picture generated by PCBNEW </desc>
<g style="fill:#000000; fill-opacity:1;stroke:#000000; stroke-opacity:1;
stroke-linecap:round; stroke-linejoin:round; "
 transform="translate(0 0) scale(1 1)">
</g>
<g style="fill:#000000; fill-opacity:0.0; 
stroke:#000000; stroke-width:-0.000393701; stroke-opacity:1; 
stroke-linecap:round; stroke-linejoin:round;">
</g>
<g style="fill:#000000; fill-opacity:0.0; 
stroke:#000000; stroke-width:0; stroke-opacity:1; 
stroke-linecap:round; stroke-linejoin:round;">
</g>
<g style="fill:#000000; fill-opacity:1.0; 
stroke:#000000; stroke-width:0; stroke-opacity:1; 
stroke-linecap:round; stroke-linejoin:round;">
<polyline style="fill-rule:evenodd;"
points="37400,23660
37400,24340
36600,24340
36600,23660
37400,23660
" /> 
</g>
<g style="fill:#000000; fill-opacity:1.0; 
stroke:#000000; stroke-width:680; stroke-opacity:1; 
stroke-linecap:round; stroke-linejoin:round;">
</g>
<g style="fill:#000000; fill-opacity:0.0; 
stroke:#000000; stroke-width:680; stroke-opacity:1; 
stroke-linecap:round; stroke-linejoin:round;">
<path d="M37060 23000
L36940 23000
" />
<path d="M37060 22000
L36940 22000
" />
</g>
<g style="fill:#000000; fill-opacity:0.0; 
stroke:#000000; stroke-width:0; stroke-opacity:1; 
stroke-linecap:round; stroke-linejoin:round;">
</g>
<g style="fill:#000000; fill-opacity:1.0; 
stroke:#000000; stroke-width:0; stroke-opacity:1; 
stroke-linecap:round; stroke-linejoin:round;">
<polyline style="fill-rule:evenodd;"
points="32600,22340
32600,21660
33400,21660
33400,22340
32600,22340
" /> 
</g>
<g style="fill:#000000; fill-opacity:1.0; 
stroke:#000000; stroke-width:680; stroke-opacity:1; 
stroke-linecap:round; stroke-linejoin:round;">
</g>
<g style="fill:#000000; fill-opacity:0.0; 
stroke:#000000; stroke-width:680; stroke-opacity:1; 
stroke-linecap:round; stroke-linejoin:round;">
<path d="M32940 23000
L33060 23000
" />
<path d="M32940 24000
L33060 24000
" />
</g>
<g style="fill:#000000; fill-opacity:0.0; 
stroke:#000000; stroke-width:0; stroke-opacity:1; 
stroke-linecap:round; stroke-linejoin:round;">
</g>
<g style="fill:#000000; fill-opacity:1.0; 
stroke:#000000; stroke-width:0; stroke-opacity:1; 
stroke-linecap:round; stroke-linejoin:round;">
<polyline style="fill-rule:evenodd;"
points="37400,28660
37400,29340
36600,29340
36600,28660
37400,28660
" /> 
</g>
<g style="fill:#000000; fill-opacity:1.0; 
stroke:#000000; stroke-width:680; stroke-opacity:1; 
stroke-linecap:round; stroke-linejoin:round;">
</g>
<g style="fill:#000000; fill-opacity:0.0; 
stroke:#000000; stroke-width:680; stroke-opacity:1; 
stroke-linecap:round; stroke-linejoin:round;">
<path d="M37060 28000
L36940 28000
" />
<path d="M37060 27000
L36940 27000
" />
</g>
<g style="fill:#000000; fill-opacity:0.0; 
stroke:#000000; stroke-width:0; stroke-opacity:1; 
stroke-linecap:round; stroke-linejoin:round;">
</g>
<g style="fill:#000000; fill-opacity:1.0; 
stroke:#000000; stroke-width:0; stroke-opacity:1; 
stroke-linecap:round; stroke-linejoin:round;">
<polyline style="fill-rule:evenodd;"
points="32600,27340
32600,26660
33400,26660
33400,27340
32600,27340
" /> 
</g>
<g style="fill:#000000; fill-opacity:1.0; 
stroke:#000000; stroke-width:680; stroke-opacity:1; 
stroke-linecap:round; stroke-linejoin:round;">
</g>
<g style="fill:#000000; fill-opacity:0.0; 
stroke:#000000; stroke-width:680; stroke-opacity:1; 
stroke-linecap:round; stroke-linejoin:round;">
<path d="M32940 28000
L33060 28000
" />
<path d="M32940 29000
L33060 29000
" />
</g>
<g style="fill:#000000; fill-opacity:0.0; 
stroke:#000000; stroke-width:0; stroke-opacity:1; 
stroke-linecap:round; stroke-linejoin:round;">
</g>
<g style="fill:#000000; fill-opacity:1.0; 
stroke:#000000; stroke-width:0; stroke-opacity:1; 
stroke-linecap:round; stroke-linejoin:round;">
<polyline style="fill-rule:evenodd;"
points="37400,33660
37400,34340
36600,34340
36600,33660
37400,33660
" /> 
</g>
<g style="fill:#000000; fill-opacity:1.0; 
stroke:#000000; stroke-width:680; stroke-opacity:1; 
stroke-linecap:round; stroke-linejoin:round;">
</g>
<g style="fill:#000000; fill-opacity:0.0; 
stroke:#000000; stroke-width:680; stroke-opacity:1; 
stroke-linecap:round; stroke-linejoin:round;">
<path d="M37060 33000
L36940 33000
" />
<path d="M37060 32000
L36940 32000
" />
</g>
<g style="fill:#000000; fill-opacity:0.0; 
stroke:#000000; stroke-width:0; stroke-opacity:1; 
stroke-linecap:round; stroke-linejoin:round;">
</g>
<g style="fill:#000000; fill-opacity:1.0; 
stroke:#000000; stroke-width:0; stroke-opacity:1; 
stroke-linecap:round; stroke-linejoin:round;">
<polyline style="fill-rule:evenodd;"
points="27340,56400
26660,56400
26660,55600
27340,55600
27340,56400
" /> 
</g>
<g style="fill:#000000; fill-opacity:1.0; 
stroke:#000000; stroke-width:680; stroke-opacity:1; 
stroke-linecap:round; stroke-linejoin:round;">
</g>
<g style="fill:#000000; fill-opacity:0.0; 
stroke:#000000; stroke-width:680; stroke-opacity:1; 
stroke-linecap:round; stroke-linejoin:round;">
<path d="M28000 56060
L28000 55940
" />
<path d="M29000 56060
L29000 55940
" />
<path d="M30000 56060
L30000 55940
" />
<path d="M31000 56060
L31000 55940
" />
<path d="M32000 56060
L32000 55940
" />
<path d="M33000 56060
L33000 55940
" />
<path d="M34000 56060
L34000 55940
" />
<path d="M35000 56060
L35000 55940
" />
<path d="M36000 56060
L36000 55940
" />
<path d="M37000 56060
L37000 55940
" />
<path d="M38000 56060
L38000 55940
" />
<path d="M39000 56060
L39000 55940
" />
<path d="M40000 56060
L40000 55940
" />
<path d="M41000 56060
L41000 55940
" />
<path d="M42000 56060
L42000 55940
" />
</g>
<g style="fill:#000000; fill-opacity:0.0; 
stroke:#000000; stroke-width:0; stroke-opacity:1; 
stroke-linecap:round; stroke-linejoin:round;">
</g>
<g style="fill:#000000; fill-opacity:1.0; 
stroke:#000000; stroke-width:0; stroke-opacity:1; 
stroke-linecap:round; stroke-linejoin:round;">
<polyline style="fill-rule:evenodd;"
points="25600,40340
25600,39660
26400,39660
26400,40340
25600,40340
" /> 
</g>
<g style="fill:#000000; fill-opacity:1.0; 
stroke:#000000; stroke-width:680; stroke-opacity:1; 
stroke-linecap:round; stroke-linejoin:round;">
</g>
<g style="fill:#000000; fill-opacity:0.0; 
stroke:#000000; stroke-width:680; stroke-opacity:1; 
stroke-linecap:round; stroke-linejoin:round;">
<path d="M25940 41000
L26060 41000
" />
<path d="M25940 42000
L26060 42000
" />
<path d="M25940 43000
L26060 43000
" />
<path d="M25940 44000
L26060 44000
" />
<path d="M25940 45000
L26060 45000
" />
<path d="M25940 46000
L26060 46000
" />
<path d="M25940 47000
L26060 47000
" />
<path d="M25940 48000
L26060 48000
" />
<path d="M25940 49000
L26060 49000
" />
<path d="M25940 50000
L26060 50000
" />
<path d="M25940 51000
L26060 51000
" />
<path d="M25940 52000
L26060 52000
" />
<path d="M25940 53000
L26060 53000
" />
<path d="M25940 54000
L26060 54000
" />
<path d="M25940 55000
L26060 55000
" />
</g>
<g style="fill:#000000; fill-opacity:0.0; 
stroke:#000000; stroke-width:0; stroke-opacity:1; 
stroke-linecap:round; stroke-linejoin:round;">
</g>
<g style="fill:#000000; fill-opacity:1.0; 
stroke:#000000; stroke-width:0; stroke-opacity:1; 
stroke-linecap:round; stroke-linejoin:round;">
<polyline style="fill-rule:evenodd;"
points="41660,38600
42340,38600
42340,39400
41660,39400
41660,38600
" /> 
</g>
<g style="fill:#000000; fill-opacity:1.0; 
stroke:#000000; stroke-width:680; stroke-opacity:1; 
stroke-linecap:round; stroke-linejoin:round;">
</g>
<g style="fill:#000000; fill-opacity:0.0; 
stroke:#000000; stroke-width:680; stroke-opacity:1; 
stroke-linecap:round; stroke-linejoin:round;">
<path d="M41000 38940
L41000 39060
" />
<path d="M40000 38940
L40000 39060
" />
<path d="M39000 38940
L39000 39060
" />
<path d="M38000 38940
L38000 39060
" />
<path d="M37000 38940
L37000 39060
" />
<path d="M36000 38940
L36000 39060
" />
<path d="M35000 38940
L35000 39060
" />
<path d="M34000 38940
L34000 39060
" />
<path d="M33000 38940
L33000 39060
" />
<path d="M32000 38940
L32000 39060
" />
<path d="M31000 38940
L31000 39060
" />
<path d="M30000 38940
L30000 39060
" />
<path d="M29000 38940
L29000 39060
" />
<path d="M28000 38940
L28000 39060
" />
<path d="M27000 38940
L27000 39060
" />
</g>
<g style="fill:#000000; fill-opacity:0.0; 
stroke:#000000; stroke-width:0; stroke-opacity:1; 
stroke-linecap:round; stroke-linejoin:round;">
</g>
<g style="fill:#000000; fill-opacity:1.0; 
stroke:#000000; stroke-width:0; stroke-opacity:1; 
stroke-linecap:round; stroke-linejoin:round;">
<polyline style="fill-rule:evenodd;"
points="44400,28060
44400,28740
43600,28740
43600,28060
44400,28060
" /> 
</g>
<g style="fill:#000000; fill-opacity:1.0; 
stroke:#000000; stroke-width:680; stroke-opacity:1; 
stroke-linecap:round; stroke-linejoin:round;">
</g>
<g style="fill:#000000; fill-opacity:0.0; 
stroke:#000000; stroke-width:680; stroke-opacity:1; 
stroke-linecap:round; stroke-linejoin:round;">
<path d="M44060 27400
L43940 27400
" />
<path d="M44060 26400
L43940 26400
" />
<path d="M44060 25400
L43940 25400
" />
<path d="M44060 24400
L43940 24400
" />
<path d="M44060 23400
L43940 23400
" />
<path d="M44060 22400
L43940 22400
" />
<path d="M44060 21400
L43940 21400
" />
<path d="M44060 20400
L43940 20400
" />
<path d="M44060 19400
L43940 19400
" />
</g>
<g style="fill:#000000; fill-opacity:0.0; 
stroke:#000000; stroke-width:0; stroke-opacity:1; 
stroke-linecap:round; stroke-linejoin:round;">
</g>
<g style="fill:#000000; fill-opacity:1.0; 
stroke:#000000; stroke-width:0; stroke-opacity:1; 
stroke-linecap:round; stroke-linejoin:round;">
<polyline style="fill-rule:evenodd;"
points="35660,35710
36340,35710
36340,36390
35660,36390
35660,35710
" /> 
</g>
<g style="fill:#000000; fill-opacity:1.0; 
stroke:#000000; stroke-width:680; stroke-opacity:1; 
stroke-linecap:round; stroke-linejoin:round;">
</g>
<g style="fill:#000000; fill-opacity:0.0; 
stroke:#000000; stroke-width:680; stroke-opacity:1; 
stroke-linecap:round; stroke-linejoin:round;">
<path d="M36000 37050
L36000 37050
" />
<path d="M35000 36050
L35000 36050
" />
<path d="M35000 37050
L35000 37050
" />
<path d="M34000 36050
L34000 36050
" />
<path d="M34000 37050
L34000 37050
" />
</g>
<g style="fill:#000000; fill-opacity:0.0; 
stroke:#000000; stroke-width:0; stroke-opacity:1; 
stroke-linecap:round; stroke-linejoin:round;">
</g>
<g style="fill:#000000; fill-opacity:1.0; 
stroke:#000000; stroke-width:0; stroke-opacity:1; 
stroke-linecap:round; stroke-linejoin:round;">
<polyline style="fill-rule:evenodd;"
points="24600,23340
24600,22660
25400,22660
25400,23340
24600,23340
" /> 
</g>
<g style="fill:#000000; fill-opacity:1.0; 
stroke:#000000; stroke-width:680; stroke-opacity:1; 
stroke-linecap:round; stroke-linejoin:round;">
</g>
<g style="fill:#000000; fill-opacity:0.0; 
stroke:#000000; stroke-width:680; stroke-opacity:1; 
stroke-linecap:round; stroke-linejoin:round;">
<path d="M24940 24000
L25060 24000
" />
<path d="M24940 25000
L25060 25000
" />
<path d="M24940 26000
L25060 26000
" />
<path d="M24940 27000
L25060 27000
" />
<path d="M24940 28000
L25060 28000
" />
<path d="M24940 29000
L25060 29000
" />
<path d="M24940 30000
L25060 30000
" />
</g>
<g style="fill:#000000; fill-opacity:0.0; 
stroke:#000000; stroke-width:0; stroke-opacity:1; 
stroke-linecap:round; stroke-linejoin:round;">
</g>
<g style="fill:#000000; fill-opacity:1.0; 
stroke:#000000; stroke-width:0; stroke-opacity:1; 
stroke-linecap:round; stroke-linejoin:round;">
<polyline style="fill-rule:evenodd;"
points="44400,36660
44400,37340
43600,37340
43600,36660
44400,36660
" /> 
</g>
<g style="fill:#000000; fill-opacity:1.0; 
stroke:#000000; stroke-width:680; stroke-opacity:1; 
stroke-linecap:round; stroke-linejoin:round;">
</g>
<g style="fill:#000000; fill-opacity:0.0; 
stroke:#000000; stroke-width:680; stroke-opacity:1; 
stroke-linecap:round; stroke-linejoin:round;">
<path d="M44060 36000
L43940 36000
" />
<path d="M44060 35000
L43940 35000
" />
<path d="M44060 34000
L43940 34000
" />
<path d="M44060 33000
L43940 33000
" />
<path d="M44060 32000
L43940 32000
" />
<path d="M44060 31000
L43940 31000
" />
<path d="M44060 30000
L43940 30000
" />
</g>
<g style="fill:#000000; fill-opacity:0.0; 
stroke:#000000; stroke-width:0; stroke-opacity:1; 
stroke-linecap:round; stroke-linejoin:round;">
</g>
<g style="fill:#000000; fill-opacity:1.0; 
stroke:#000000; stroke-width:0; stroke-opacity:1; 
stroke-linecap:round; stroke-linejoin:round;">
<polyline style="fill-rule:evenodd;"
points="24600,32340
24600,31660
25400,31660
25400,32340
24600,32340
" /> 
</g>
<g style="fill:#000000; fill-opacity:1.0; 
stroke:#000000; stroke-width:680; stroke-opacity:1; 
stroke-linecap:round; stroke-linejoin:round;">
</g>
<g style="fill:#000000; fill-opacity:0.0; 
stroke:#000000; stroke-width:680; stroke-opacity:1; 
stroke-linecap:round; stroke-linejoin:round;">
<path d="M24940 33000
L25060 33000
" />
<path d="M24940 34000
L25060 34000
" />
<path d="M24940 35000
L25060 35000
" />
<path d="M24940 36000
L25060 36000
" />
<path d="M24940 37000
L25060 37000
" />
</g>
<g style="fill:#000000; fill-opacity:0.0; 
stroke:#000000; stroke-width:0; stroke-opacity:1; 
stroke-linecap:round; stroke-linejoin:round;">
</g>
<g style="fill:#000000; fill-opacity:1.0; 
stroke:#000000; stroke-width:0; stroke-opacity:1; 
stroke-linecap:round; stroke-linejoin:round;">
<polyline style="fill-rule:evenodd;"
points="38660,59600
39340,59600
39340,60400
38660,60400
38660,59600
" /> 
</g>
<g style="fill:#000000; fill-opacity:1.0; 
stroke:#000000; stroke-width:680; stroke-opacity:1; 
stroke-linecap:round; stroke-linejoin:round;">
</g>
<g style="fill:#000000; fill-opacity:0.0; 
stroke:#000000; stroke-width:680; stroke-opacity:1; 
stroke-linecap:round; stroke-linejoin:round;">
<path d="M38000 59940
L38000 60060
" />
<path d="M37000 59940
L37000 60060
" />
<path d="M36000 59940
L36000 60060
" />
<path d="M35000 59940
L35000 60060
" />
<path d="M34000 59940
L34000 60060
" />
<path d="M33000 59940
L33000 60060
" />
<path d="M32000 59940
L32000 60060
" />
<path d="M31000 59940
L31000 60060
" />
<path d="M30000 59940
L30000 60060
" />
</g>
<g style="fill:#000000; fill-opacity:0.0; 
stroke:#000000; stroke-width:0; stroke-opacity:1; 
stroke-linecap:round; stroke-linejoin:round;">
</g>
<g style="fill:#000000; fill-opacity:1.0; 
stroke:#000000; stroke-width:0; stroke-opacity:1; 
stroke-linecap:round; stroke-linejoin:round;">
<polyline style="fill-rule:evenodd;"
points="38660,57600
39340,57600
39340,58400
38660,58400
38660,57600
" /> 
</g>
<g style="fill:#000000; fill-opacity:1.0; 
stroke:#000000; stroke-width:680; stroke-opacity:1; 
stroke-linecap:round; stroke-linejoin:round;">
</g>
<g style="fill:#000000; fill-opacity:0.0; 
stroke:#000000; stroke-width:680; stroke-opacity:1; 
stroke-linecap:round; stroke-linejoin:round;">
<path d="M38000 57940
L38000 58060
" />
<path d="M37000 57940
L37000 58060
" />
<path d="M36000 57940
L36000 58060
" />
<path d="M35000 57940
L35000 58060
" />
<path d="M34000 57940
L34000 58060
" />
<path d="M33000 57940
L33000 58060
" />
<path d="M32000 57940
L32000 58060
" />
<path d="M31000 57940
L31000 58060
" />
<path d="M30000 57940
L30000 58060
" />
</g>
<g style="fill:#000000; fill-opacity:0.0; 
stroke:#000000; stroke-width:0; stroke-opacity:1; 
stroke-linecap:round; stroke-linejoin:round;">
</g>
<g style="fill:#000000; fill-opacity:1.0; 
stroke:#000000; stroke-width:0; stroke-opacity:1; 
stroke-linecap:round; stroke-linejoin:round;">
<polyline style="fill-rule:evenodd;"
points="43400,54660
43400,55340
42600,55340
42600,54660
43400,54660
" /> 
</g>
<g style="fill:#000000; fill-opacity:1.0; 
stroke:#000000; stroke-width:680; stroke-opacity:1; 
stroke-linecap:round; stroke-linejoin:round;">
</g>
<g style="fill:#000000; fill-opacity:0.0; 
stroke:#000000; stroke-width:680; stroke-opacity:1; 
stroke-linecap:round; stroke-linejoin:round;">
<path d="M43060 54000
L42940 54000
" />
<path d="M43060 53000
L42940 53000
" />
<path d="M43060 52000
L42940 52000
" />
<path d="M43060 51000
L42940 51000
" />
<path d="M43060 50000
L42940 50000
" />
<path d="M43060 49000
L42940 49000
" />
<path d="M43060 48000
L42940 48000
" />
<path d="M43060 47000
L42940 47000
" />
<path d="M43060 46000
L42940 46000
" />
<path d="M43060 45000
L42940 45000
" />
<path d="M43060 44000
L42940 44000
" />
<path d="M43060 43000
L42940 43000
" />
<path d="M43060 42000
L42940 42000
" />
<path d="M43060 41000
L42940 41000
" />
<path d="M43060 40000
L42940 40000
" />
</g>
<g style="fill:#000000; fill-opacity:0.0; 
stroke:#000000; stroke-width:0; stroke-opacity:1; 
stroke-linecap:round; stroke-linejoin:round;">
</g>
<g style="fill:#000000; fill-opacity:1.0; 
stroke:#000000; stroke-width:0; stroke-opacity:1; 
stroke-linecap:round; stroke-linejoin:round;">
<polyline style="fill-rule:evenodd;"
points="32600,32340
32600,31660
33400,31660
33400,32340
32600,32340
" /> 
</g>
<g style="fill:#000000; fill-opacity:1.0; 
stroke:#000000; stroke-width:680; stroke-opacity:1; 
stroke-linecap:round; stroke-linejoin:round;">
</g>
<g style="fill:#000000; fill-opacity:0.0; 
stroke:#000000; stroke-width:680; stroke-opacity:1; 
stroke-linecap:round; stroke-linejoin:round;">
<path d="M32940 33000
L33060 33000
" />
<path d="M32940 34000
L33060 34000
" />
</g>
<g style="fill:#000000; fill-opacity:0.0; 
stroke:#000000; stroke-width:98.4252; stroke-opacity:1; 
stroke-linecap:round; stroke-linejoin:round;">
<path d="M34000 48000
L34000 50000
" />
<path d="M34000 50000
L28000 56000
" />
<path d="M34000 48000
L34000 53000
" />
<path d="M34000 53000
L31000 56000
" />
<path d="M35000 48000
L35000 53000
" />
<path d="M35000 53000
L38000 56000
" />
<path d="M35000 48000
L35000 52000
" />
<path d="M35000 52000
L39000 56000
" />
<path d="M35000 48000
L40000 48000
" />
<path d="M40000 48000
L43000 51000
" />
<path d="M35000 48000
L42000 48000
" />
<path d="M42000 48000
L43000 49000
" />
<path d="M35000 47000
L35000 41000
" />
<path d="M35000 41000
L37000 39000
" />
<path d="M34000 48000
L29000 48000
" />
<path d="M29000 48000
L26000 51000
" />
<path d="M34000 48000
L27000 48000
" />
<path d="M27000 48000
L26000 49000
" />
<path d="M34000 47000
L35000 47000
" />
<path d="M34000 48000
L34000 47000
" />
<path d="M35000 48000
L34000 48000
" />
<path d="M35000 47000
L35000 48000
" />
<path d="M25000 28000
L28000 28000
" />
<path d="M28000 28000
L33000 23000
" />
<path d="M25000 28000
L33000 28000
" />
<path d="M28000 28000
L33000 33000
" />
<path d="M42000 56000
L39000 60000
" />
<path d="M39000 60000
L39000 60000
" />
<path d="M43000 55000
L44000 56000
" />
<path d="M38700 60800
L38000 60000
" />
<path d="M43700 60800
L38700 60800
" />
<path d="M44000 60500
L43700 60800
" />
<path d="M44000 56000
L44000 60500
" />
<path d="M43000 53000
L44500 54500
" />
<path d="M37800 60900
L37000 60000
" />
<path d="M44100 60900
L37800 60900
" />
<path d="M44500 60500
L44100 60900
" />
<path d="M44500 54500
L44500 60500
" />
<path d="M43000 47000
L45000 49000
" />
<path d="M36800 61000
L36000 60000
" />
<path d="M44500 61000
L36800 61000
" />
<path d="M45000 60500
L44500 61000
" />
<path d="M45000 49000
L45000 60500
" />
<path d="M43000 45000
L45500 47500
" />
<path d="M35800 61100
L35000 60000
" />
<path d="M44900 61100
L35800 61100
" />
<path d="M45500 60500
L44900 61100
" />
<path d="M45500 47500
L45500 60500
" />
<path d="M26000 55000
L25000 56000
" />
<path d="M32900 58900
L34000 60000
" />
<path d="M27900 58900
L32900 58900
" />
<path d="M25000 56000
L27900 58900
" />
<path d="M26000 53000
L24500 54500
" />
<path d="M27500 59000
L30400 59000
" />
<path d="M24500 56000
L27500 59000
" />
<path d="M24500 54500
L24500 56000
" />
<path d="M30400 59000
L32000 59000
" />
<path d="M32000 59000
L33000 60000
" />
<path d="M32000 59000
L32000 59000
" />
<path d="M26000 47000
L24000 49000
" />
<path d="M31100 59100
L32000 60000
" />
<path d="M27100 59100
L31100 59100
" />
<path d="M24000 56000
L27100 59100
" />
<path d="M24000 49000
L24000 56000
" />
<path d="M26000 45000
L23500 47500
" />
<path d="M30200 59200
L31000 60000
" />
<path d="M26700 59200
L30200 59200
" />
<path d="M23500 56000
L26700 59200
" />
<path d="M23500 54500
L23500 56000
" />
<path d="M23500 47500
L23500 54500
" />
</g> 
</svg>
