<?xml version="1.0" standalone="no"?>
 <!DOCTYPE svg PUBLIC "-//W3C//DTD SVG 1.1//EN" 
 "http://www.w3.org/Graphics/SVG/1.1/DTD/svg11.dtd"> 
<svg xmlns="http://www.w3.org/2000/svg" version="1.1" 
    width="29.7002cm" height="21.0007cm" viewBox="0 0 116930 82680 ">
<title>SVG Picture created as AD7779 for Intel Edison Arduino-F.Cu.svg date 2016/07/11 03:47:21 </title>
  <desc>Picture generated by PCBNEW </desc>
<g style="fill:#000000; fill-opacity:1;stroke:#000000; stroke-opacity:1;
stroke-linecap:round; stroke-linejoin:round; "
 transform="translate(0 0) scale(1 1)">
</g>
<g style="fill:#000000; fill-opacity:0.0; 
stroke:#000000; stroke-width:-0.000393701; stroke-opacity:1; 
stroke-linecap:round; stroke-linejoin:round;">
</g>
<g style="fill:#000000; fill-opacity:0.0; 
stroke:#000000; stroke-width:0; stroke-opacity:1; 
stroke-linecap:round; stroke-linejoin:round;">
</g>
<g style="fill:#000000; fill-opacity:1.0; 
stroke:#000000; stroke-width:0; stroke-opacity:1; 
stroke-linecap:round; stroke-linejoin:round;">
<polyline style="fill-rule:evenodd;"
points="45106,48677
45106,48322
45303,48322
45303,48677
45106,48677
" /> 
<polyline style="fill-rule:evenodd;"
points="45696,48677
45696,48322
45893,48322
45893,48677
45696,48677
" /> 
<polyline style="fill-rule:evenodd;"
points="44606,49677
44606,49322
44803,49322
44803,49677
44606,49677
" /> 
<polyline style="fill-rule:evenodd;"
points="45196,49677
45196,49322
45393,49322
45393,49677
45196,49677
" /> 
<polyline style="fill-rule:evenodd;"
points="23106,48677
23106,48322
23303,48322
23303,48677
23106,48677
" /> 
<polyline style="fill-rule:evenodd;"
points="23696,48677
23696,48322
23893,48322
23893,48677
23696,48677
" /> 
<polyline style="fill-rule:evenodd;"
points="36429,48927
36429,49025
36114,49025
36114,48927
36429,48927
" /> 
<polyline style="fill-rule:evenodd;"
points="36429,48730
36429,48828
36114,48828
36114,48730
36429,48730
" /> 
<polyline style="fill-rule:evenodd;"
points="36429,48533
36429,48631
36114,48631
36114,48533
36429,48533
" /> 
<polyline style="fill-rule:evenodd;"
points="36429,48336
36429,48435
36114,48435
36114,48336
36429,48336
" /> 
<polyline style="fill-rule:evenodd;"
points="36429,48139
36429,48238
36114,48238
36114,48139
36429,48139
" /> 
<polyline style="fill-rule:evenodd;"
points="36429,47942
36429,48041
36114,48041
36114,47942
36429,47942
" /> 
<polyline style="fill-rule:evenodd;"
points="36429,47746
36429,47844
36114,47844
36114,47746
36429,47746
" /> 
<polyline style="fill-rule:evenodd;"
points="36429,47549
36429,47647
36114,47647
36114,47549
36429,47549
" /> 
<polyline style="fill-rule:evenodd;"
points="36429,47352
36429,47450
36114,47450
36114,47352
36429,47352
" /> 
<polyline style="fill-rule:evenodd;"
points="36429,47155
36429,47253
36114,47253
36114,47155
36429,47155
" /> 
<polyline style="fill-rule:evenodd;"
points="36429,46958
36429,47057
36114,47057
36114,46958
36429,46958
" /> 
<polyline style="fill-rule:evenodd;"
points="36429,46761
36429,46860
36114,46860
36114,46761
36429,46761
" /> 
<polyline style="fill-rule:evenodd;"
points="36429,46564
36429,46663
36114,46663
36114,46564
36429,46564
" /> 
<polyline style="fill-rule:evenodd;"
points="36429,46368
36429,46466
36114,46466
36114,46368
36429,46368
" /> 
<polyline style="fill-rule:evenodd;"
points="36429,46171
36429,46269
36114,46269
36114,46171
36429,46171
" /> 
<polyline style="fill-rule:evenodd;"
points="36429,45974
36429,46072
36114,46072
36114,45974
36429,45974
" /> 
<polyline style="fill-rule:evenodd;"
points="35927,45570
36025,45570
36025,45885
35927,45885
35927,45570
" /> 
<polyline style="fill-rule:evenodd;"
points="35730,45570
35828,45570
35828,45885
35730,45885
35730,45570
" /> 
<polyline style="fill-rule:evenodd;"
points="35533,45570
35631,45570
35631,45885
35533,45885
35533,45570
" /> 
<polyline style="fill-rule:evenodd;"
points="35336,45570
35435,45570
35435,45885
35336,45885
35336,45570
" /> 
<polyline style="fill-rule:evenodd;"
points="35139,45570
35238,45570
35238,45885
35139,45885
35139,45570
" /> 
<polyline style="fill-rule:evenodd;"
points="34942,45570
35041,45570
35041,45885
34942,45885
34942,45570
" /> 
<polyline style="fill-rule:evenodd;"
points="34746,45570
34844,45570
34844,45885
34746,45885
34746,45570
" /> 
<polyline style="fill-rule:evenodd;"
points="34549,45570
34647,45570
34647,45885
34549,45885
34549,45570
" /> 
<polyline style="fill-rule:evenodd;"
points="34352,45570
34450,45570
34450,45885
34352,45885
34352,45570
" /> 
<polyline style="fill-rule:evenodd;"
points="34155,45570
34253,45570
34253,45885
34155,45885
34155,45570
" /> 
<polyline style="fill-rule:evenodd;"
points="33958,45570
34057,45570
34057,45885
33958,45885
33958,45570
" /> 
<polyline style="fill-rule:evenodd;"
points="33761,45570
33860,45570
33860,45885
33761,45885
33761,45570
" /> 
<polyline style="fill-rule:evenodd;"
points="33564,45570
33663,45570
33663,45885
33564,45885
33564,45570
" /> 
<polyline style="fill-rule:evenodd;"
points="33368,45570
33466,45570
33466,45885
33368,45885
33368,45570
" /> 
<polyline style="fill-rule:evenodd;"
points="33171,45570
33269,45570
33269,45885
33171,45885
33171,45570
" /> 
<polyline style="fill-rule:evenodd;"
points="32974,45570
33072,45570
33072,45885
32974,45885
32974,45570
" /> 
<polyline style="fill-rule:evenodd;"
points="32885,45974
32885,46072
32570,46072
32570,45974
32885,45974
" /> 
<polyline style="fill-rule:evenodd;"
points="32885,46171
32885,46269
32570,46269
32570,46171
32885,46171
" /> 
<polyline style="fill-rule:evenodd;"
points="32885,46368
32885,46466
32570,46466
32570,46368
32885,46368
" /> 
<polyline style="fill-rule:evenodd;"
points="32885,46564
32885,46663
32570,46663
32570,46564
32885,46564
" /> 
<polyline style="fill-rule:evenodd;"
points="32885,46761
32885,46860
32570,46860
32570,46761
32885,46761
" /> 
<polyline style="fill-rule:evenodd;"
points="32885,46958
32885,47057
32570,47057
32570,46958
32885,46958
" /> 
<polyline style="fill-rule:evenodd;"
points="32885,47155
32885,47253
32570,47253
32570,47155
32885,47155
" /> 
<polyline style="fill-rule:evenodd;"
points="32885,47352
32885,47450
32570,47450
32570,47352
32885,47352
" /> 
<polyline style="fill-rule:evenodd;"
points="32885,47549
32885,47647
32570,47647
32570,47549
32885,47549
" /> 
<polyline style="fill-rule:evenodd;"
points="32885,47746
32885,47844
32570,47844
32570,47746
32885,47746
" /> 
<polyline style="fill-rule:evenodd;"
points="32885,47942
32885,48041
32570,48041
32570,47942
32885,47942
" /> 
<polyline style="fill-rule:evenodd;"
points="32885,48139
32885,48238
32570,48238
32570,48139
32885,48139
" /> 
<polyline style="fill-rule:evenodd;"
points="32885,48336
32885,48435
32570,48435
32570,48336
32885,48336
" /> 
<polyline style="fill-rule:evenodd;"
points="32885,48533
32885,48631
32570,48631
32570,48533
32885,48533
" /> 
<polyline style="fill-rule:evenodd;"
points="32885,48730
32885,48828
32570,48828
32570,48730
32885,48730
" /> 
<polyline style="fill-rule:evenodd;"
points="32885,48927
32885,49025
32570,49025
32570,48927
32885,48927
" /> 
<polyline style="fill-rule:evenodd;"
points="32974,49114
33072,49114
33072,49429
32974,49429
32974,49114
" /> 
<polyline style="fill-rule:evenodd;"
points="33171,49114
33269,49114
33269,49429
33171,49429
33171,49114
" /> 
<polyline style="fill-rule:evenodd;"
points="33368,49114
33466,49114
33466,49429
33368,49429
33368,49114
" /> 
<polyline style="fill-rule:evenodd;"
points="33564,49114
33663,49114
33663,49429
33564,49429
33564,49114
" /> 
<polyline style="fill-rule:evenodd;"
points="33761,49114
33860,49114
33860,49429
33761,49429
33761,49114
" /> 
<polyline style="fill-rule:evenodd;"
points="33958,49114
34057,49114
34057,49429
33958,49429
33958,49114
" /> 
<polyline style="fill-rule:evenodd;"
points="34155,49114
34253,49114
34253,49429
34155,49429
34155,49114
" /> 
<polyline style="fill-rule:evenodd;"
points="34352,49114
34450,49114
34450,49429
34352,49429
34352,49114
" /> 
<polyline style="fill-rule:evenodd;"
points="34549,49114
34647,49114
34647,49429
34549,49429
34549,49114
" /> 
<polyline style="fill-rule:evenodd;"
points="34746,49114
34844,49114
34844,49429
34746,49429
34746,49114
" /> 
<polyline style="fill-rule:evenodd;"
points="34942,49114
35041,49114
35041,49429
34942,49429
34942,49114
" /> 
<polyline style="fill-rule:evenodd;"
points="35139,49114
35238,49114
35238,49429
35139,49429
35139,49114
" /> 
<polyline style="fill-rule:evenodd;"
points="35336,49114
35435,49114
35435,49429
35336,49429
35336,49114
" /> 
<polyline style="fill-rule:evenodd;"
points="35533,49114
35631,49114
35631,49429
35533,49429
35533,49114
" /> 
<polyline style="fill-rule:evenodd;"
points="35730,49114
35828,49114
35828,49429
35730,49429
35730,49114
" /> 
<polyline style="fill-rule:evenodd;"
points="35927,49114
36025,49114
36025,49429
35927,49429
35927,49114
" /> 
<polyline style="fill-rule:evenodd;"
points="33751,46003
33751,46751
33003,46751
33003,46003
33751,46003
" /> 
<polyline style="fill-rule:evenodd;"
points="33751,46751
33751,47500
33003,47500
33003,46751
33751,46751
" /> 
<polyline style="fill-rule:evenodd;"
points="33751,47500
33751,48248
33003,48248
33003,47500
33751,47500
" /> 
<polyline style="fill-rule:evenodd;"
points="33751,48248
33751,48996
33003,48996
33003,48248
33751,48248
" /> 
<polyline style="fill-rule:evenodd;"
points="34500,46003
34500,46751
33751,46751
33751,46003
34500,46003
" /> 
<polyline style="fill-rule:evenodd;"
points="34500,46751
34500,47500
33751,47500
33751,46751
34500,46751
" /> 
<polyline style="fill-rule:evenodd;"
points="34500,47500
34500,48248
33751,48248
33751,47500
34500,47500
" /> 
<polyline style="fill-rule:evenodd;"
points="34500,48248
34500,48996
33751,48996
33751,48248
34500,48248
" /> 
<polyline style="fill-rule:evenodd;"
points="35248,46003
35248,46751
34500,46751
34500,46003
35248,46003
" /> 
<polyline style="fill-rule:evenodd;"
points="35248,46751
35248,47500
34500,47500
34500,46751
35248,46751
" /> 
<polyline style="fill-rule:evenodd;"
points="35248,47500
35248,48248
34500,48248
34500,47500
35248,47500
" /> 
<polyline style="fill-rule:evenodd;"
points="35248,48248
35248,48996
34500,48996
34500,48248
35248,48248
" /> 
<polyline style="fill-rule:evenodd;"
points="35996,46003
35996,46751
35248,46751
35248,46003
35996,46003
" /> 
<polyline style="fill-rule:evenodd;"
points="35996,46751
35996,47500
35248,47500
35248,46751
35996,46751
" /> 
<polyline style="fill-rule:evenodd;"
points="35996,47500
35996,48248
35248,48248
35248,47500
35996,47500
" /> 
<polyline style="fill-rule:evenodd;"
points="35996,48248
35996,48996
35248,48996
35248,48248
35996,48248
" /> 
<polyline style="fill-rule:evenodd;"
points="37400,23660
37400,24340
36600,24340
36600,23660
37400,23660
" /> 
</g>
<g style="fill:#000000; fill-opacity:1.0; 
stroke:#000000; stroke-width:680; stroke-opacity:1; 
stroke-linecap:round; stroke-linejoin:round;">
</g>
<g style="fill:#000000; fill-opacity:0.0; 
stroke:#000000; stroke-width:680; stroke-opacity:1; 
stroke-linecap:round; stroke-linejoin:round;">
<path d="M37060 23000
L36940 23000
" />
<path d="M37060 22000
L36940 22000
" />
</g>
<g style="fill:#000000; fill-opacity:0.0; 
stroke:#000000; stroke-width:0; stroke-opacity:1; 
stroke-linecap:round; stroke-linejoin:round;">
</g>
<g style="fill:#000000; fill-opacity:1.0; 
stroke:#000000; stroke-width:0; stroke-opacity:1; 
stroke-linecap:round; stroke-linejoin:round;">
<polyline style="fill-rule:evenodd;"
points="32600,22340
32600,21660
33400,21660
33400,22340
32600,22340
" /> 
</g>
<g style="fill:#000000; fill-opacity:1.0; 
stroke:#000000; stroke-width:680; stroke-opacity:1; 
stroke-linecap:round; stroke-linejoin:round;">
</g>
<g style="fill:#000000; fill-opacity:0.0; 
stroke:#000000; stroke-width:680; stroke-opacity:1; 
stroke-linecap:round; stroke-linejoin:round;">
<path d="M32940 23000
L33060 23000
" />
<path d="M32940 24000
L33060 24000
" />
</g>
<g style="fill:#000000; fill-opacity:0.0; 
stroke:#000000; stroke-width:0; stroke-opacity:1; 
stroke-linecap:round; stroke-linejoin:round;">
</g>
<g style="fill:#000000; fill-opacity:1.0; 
stroke:#000000; stroke-width:0; stroke-opacity:1; 
stroke-linecap:round; stroke-linejoin:round;">
<polyline style="fill-rule:evenodd;"
points="37400,28660
37400,29340
36600,29340
36600,28660
37400,28660
" /> 
</g>
<g style="fill:#000000; fill-opacity:1.0; 
stroke:#000000; stroke-width:680; stroke-opacity:1; 
stroke-linecap:round; stroke-linejoin:round;">
</g>
<g style="fill:#000000; fill-opacity:0.0; 
stroke:#000000; stroke-width:680; stroke-opacity:1; 
stroke-linecap:round; stroke-linejoin:round;">
<path d="M37060 28000
L36940 28000
" />
<path d="M37060 27000
L36940 27000
" />
</g>
<g style="fill:#000000; fill-opacity:0.0; 
stroke:#000000; stroke-width:0; stroke-opacity:1; 
stroke-linecap:round; stroke-linejoin:round;">
</g>
<g style="fill:#000000; fill-opacity:1.0; 
stroke:#000000; stroke-width:0; stroke-opacity:1; 
stroke-linecap:round; stroke-linejoin:round;">
<polyline style="fill-rule:evenodd;"
points="32600,27340
32600,26660
33400,26660
33400,27340
32600,27340
" /> 
</g>
<g style="fill:#000000; fill-opacity:1.0; 
stroke:#000000; stroke-width:680; stroke-opacity:1; 
stroke-linecap:round; stroke-linejoin:round;">
</g>
<g style="fill:#000000; fill-opacity:0.0; 
stroke:#000000; stroke-width:680; stroke-opacity:1; 
stroke-linecap:round; stroke-linejoin:round;">
<path d="M32940 28000
L33060 28000
" />
<path d="M32940 29000
L33060 29000
" />
</g>
<g style="fill:#000000; fill-opacity:0.0; 
stroke:#000000; stroke-width:0; stroke-opacity:1; 
stroke-linecap:round; stroke-linejoin:round;">
</g>
<g style="fill:#000000; fill-opacity:1.0; 
stroke:#000000; stroke-width:0; stroke-opacity:1; 
stroke-linecap:round; stroke-linejoin:round;">
<polyline style="fill-rule:evenodd;"
points="37400,33660
37400,34340
36600,34340
36600,33660
37400,33660
" /> 
</g>
<g style="fill:#000000; fill-opacity:1.0; 
stroke:#000000; stroke-width:680; stroke-opacity:1; 
stroke-linecap:round; stroke-linejoin:round;">
</g>
<g style="fill:#000000; fill-opacity:0.0; 
stroke:#000000; stroke-width:680; stroke-opacity:1; 
stroke-linecap:round; stroke-linejoin:round;">
<path d="M37060 33000
L36940 33000
" />
<path d="M37060 32000
L36940 32000
" />
</g>
<g style="fill:#000000; fill-opacity:0.0; 
stroke:#000000; stroke-width:0; stroke-opacity:1; 
stroke-linecap:round; stroke-linejoin:round;">
</g>
<g style="fill:#000000; fill-opacity:1.0; 
stroke:#000000; stroke-width:0; stroke-opacity:1; 
stroke-linecap:round; stroke-linejoin:round;">
<polyline style="fill-rule:evenodd;"
points="27340,56400
26660,56400
26660,55600
27340,55600
27340,56400
" /> 
</g>
<g style="fill:#000000; fill-opacity:1.0; 
stroke:#000000; stroke-width:680; stroke-opacity:1; 
stroke-linecap:round; stroke-linejoin:round;">
</g>
<g style="fill:#000000; fill-opacity:0.0; 
stroke:#000000; stroke-width:680; stroke-opacity:1; 
stroke-linecap:round; stroke-linejoin:round;">
<path d="M28000 56060
L28000 55940
" />
<path d="M29000 56060
L29000 55940
" />
<path d="M30000 56060
L30000 55940
" />
<path d="M31000 56060
L31000 55940
" />
<path d="M32000 56060
L32000 55940
" />
<path d="M33000 56060
L33000 55940
" />
<path d="M34000 56060
L34000 55940
" />
<path d="M35000 56060
L35000 55940
" />
<path d="M36000 56060
L36000 55940
" />
<path d="M37000 56060
L37000 55940
" />
<path d="M38000 56060
L38000 55940
" />
<path d="M39000 56060
L39000 55940
" />
<path d="M40000 56060
L40000 55940
" />
<path d="M41000 56060
L41000 55940
" />
<path d="M42000 56060
L42000 55940
" />
</g>
<g style="fill:#000000; fill-opacity:0.0; 
stroke:#000000; stroke-width:0; stroke-opacity:1; 
stroke-linecap:round; stroke-linejoin:round;">
</g>
<g style="fill:#000000; fill-opacity:1.0; 
stroke:#000000; stroke-width:0; stroke-opacity:1; 
stroke-linecap:round; stroke-linejoin:round;">
<polyline style="fill-rule:evenodd;"
points="25600,40340
25600,39660
26400,39660
26400,40340
25600,40340
" /> 
</g>
<g style="fill:#000000; fill-opacity:1.0; 
stroke:#000000; stroke-width:680; stroke-opacity:1; 
stroke-linecap:round; stroke-linejoin:round;">
</g>
<g style="fill:#000000; fill-opacity:0.0; 
stroke:#000000; stroke-width:680; stroke-opacity:1; 
stroke-linecap:round; stroke-linejoin:round;">
<path d="M25940 41000
L26060 41000
" />
<path d="M25940 42000
L26060 42000
" />
<path d="M25940 43000
L26060 43000
" />
<path d="M25940 44000
L26060 44000
" />
<path d="M25940 45000
L26060 45000
" />
<path d="M25940 46000
L26060 46000
" />
<path d="M25940 47000
L26060 47000
" />
<path d="M25940 48000
L26060 48000
" />
<path d="M25940 49000
L26060 49000
" />
<path d="M25940 50000
L26060 50000
" />
<path d="M25940 51000
L26060 51000
" />
<path d="M25940 52000
L26060 52000
" />
<path d="M25940 53000
L26060 53000
" />
<path d="M25940 54000
L26060 54000
" />
<path d="M25940 55000
L26060 55000
" />
</g>
<g style="fill:#000000; fill-opacity:0.0; 
stroke:#000000; stroke-width:0; stroke-opacity:1; 
stroke-linecap:round; stroke-linejoin:round;">
</g>
<g style="fill:#000000; fill-opacity:1.0; 
stroke:#000000; stroke-width:0; stroke-opacity:1; 
stroke-linecap:round; stroke-linejoin:round;">
<polyline style="fill-rule:evenodd;"
points="41660,38600
42340,38600
42340,39400
41660,39400
41660,38600
" /> 
</g>
<g style="fill:#000000; fill-opacity:1.0; 
stroke:#000000; stroke-width:680; stroke-opacity:1; 
stroke-linecap:round; stroke-linejoin:round;">
</g>
<g style="fill:#000000; fill-opacity:0.0; 
stroke:#000000; stroke-width:680; stroke-opacity:1; 
stroke-linecap:round; stroke-linejoin:round;">
<path d="M41000 38940
L41000 39060
" />
<path d="M40000 38940
L40000 39060
" />
<path d="M39000 38940
L39000 39060
" />
<path d="M38000 38940
L38000 39060
" />
<path d="M37000 38940
L37000 39060
" />
<path d="M36000 38940
L36000 39060
" />
<path d="M35000 38940
L35000 39060
" />
<path d="M34000 38940
L34000 39060
" />
<path d="M33000 38940
L33000 39060
" />
<path d="M32000 38940
L32000 39060
" />
<path d="M31000 38940
L31000 39060
" />
<path d="M30000 38940
L30000 39060
" />
<path d="M29000 38940
L29000 39060
" />
<path d="M28000 38940
L28000 39060
" />
<path d="M27000 38940
L27000 39060
" />
</g>
<g style="fill:#000000; fill-opacity:0.0; 
stroke:#000000; stroke-width:0; stroke-opacity:1; 
stroke-linecap:round; stroke-linejoin:round;">
</g>
<g style="fill:#000000; fill-opacity:1.0; 
stroke:#000000; stroke-width:0; stroke-opacity:1; 
stroke-linecap:round; stroke-linejoin:round;">
<polyline style="fill-rule:evenodd;"
points="34470,32660
34730,32660
34730,32820
34470,32820
34470,32660
" /> 
<polyline style="fill-rule:evenodd;"
points="34470,33180
34730,33180
34730,33340
34470,33340
34470,33180
" /> 
<polyline style="fill-rule:evenodd;"
points="34470,32920
34730,32920
34730,33080
34470,33080
34470,32920
" /> 
<polyline style="fill-rule:evenodd;"
points="35270,33180
35530,33180
35530,33340
35270,33340
35270,33180
" /> 
<polyline style="fill-rule:evenodd;"
points="35270,32660
35530,32660
35530,32820
35270,32820
35270,32660
" /> 
<polyline style="fill-rule:evenodd;"
points="34470,27660
34730,27660
34730,27820
34470,27820
34470,27660
" /> 
<polyline style="fill-rule:evenodd;"
points="34470,28180
34730,28180
34730,28340
34470,28340
34470,28180
" /> 
<polyline style="fill-rule:evenodd;"
points="34470,27920
34730,27920
34730,28080
34470,28080
34470,27920
" /> 
<polyline style="fill-rule:evenodd;"
points="35270,28180
35530,28180
35530,28340
35270,28340
35270,28180
" /> 
<polyline style="fill-rule:evenodd;"
points="35270,27660
35530,27660
35530,27820
35270,27820
35270,27660
" /> 
<polyline style="fill-rule:evenodd;"
points="44400,28060
44400,28740
43600,28740
43600,28060
44400,28060
" /> 
</g>
<g style="fill:#000000; fill-opacity:1.0; 
stroke:#000000; stroke-width:680; stroke-opacity:1; 
stroke-linecap:round; stroke-linejoin:round;">
</g>
<g style="fill:#000000; fill-opacity:0.0; 
stroke:#000000; stroke-width:680; stroke-opacity:1; 
stroke-linecap:round; stroke-linejoin:round;">
<path d="M44060 27400
L43940 27400
" />
<path d="M44060 26400
L43940 26400
" />
<path d="M44060 25400
L43940 25400
" />
<path d="M44060 24400
L43940 24400
" />
<path d="M44060 23400
L43940 23400
" />
<path d="M44060 22400
L43940 22400
" />
<path d="M44060 21400
L43940 21400
" />
<path d="M44060 20400
L43940 20400
" />
<path d="M44060 19400
L43940 19400
" />
</g>
<g style="fill:#000000; fill-opacity:0.0; 
stroke:#000000; stroke-width:0; stroke-opacity:1; 
stroke-linecap:round; stroke-linejoin:round;">
</g>
<g style="fill:#000000; fill-opacity:1.0; 
stroke:#000000; stroke-width:0; stroke-opacity:1; 
stroke-linecap:round; stroke-linejoin:round;">
<polyline style="fill-rule:evenodd;"
points="35660,35710
36340,35710
36340,36390
35660,36390
35660,35710
" /> 
</g>
<g style="fill:#000000; fill-opacity:1.0; 
stroke:#000000; stroke-width:680; stroke-opacity:1; 
stroke-linecap:round; stroke-linejoin:round;">
</g>
<g style="fill:#000000; fill-opacity:0.0; 
stroke:#000000; stroke-width:680; stroke-opacity:1; 
stroke-linecap:round; stroke-linejoin:round;">
<path d="M36000 37050
L36000 37050
" />
<path d="M35000 36050
L35000 36050
" />
<path d="M35000 37050
L35000 37050
" />
<path d="M34000 36050
L34000 36050
" />
<path d="M34000 37050
L34000 37050
" />
</g>
<g style="fill:#000000; fill-opacity:0.0; 
stroke:#000000; stroke-width:0; stroke-opacity:1; 
stroke-linecap:round; stroke-linejoin:round;">
</g>
<g style="fill:#000000; fill-opacity:1.0; 
stroke:#000000; stroke-width:0; stroke-opacity:1; 
stroke-linecap:round; stroke-linejoin:round;">
<polyline style="fill-rule:evenodd;"
points="24600,23340
24600,22660
25400,22660
25400,23340
24600,23340
" /> 
</g>
<g style="fill:#000000; fill-opacity:1.0; 
stroke:#000000; stroke-width:680; stroke-opacity:1; 
stroke-linecap:round; stroke-linejoin:round;">
</g>
<g style="fill:#000000; fill-opacity:0.0; 
stroke:#000000; stroke-width:680; stroke-opacity:1; 
stroke-linecap:round; stroke-linejoin:round;">
<path d="M24940 24000
L25060 24000
" />
<path d="M24940 25000
L25060 25000
" />
<path d="M24940 26000
L25060 26000
" />
<path d="M24940 27000
L25060 27000
" />
<path d="M24940 28000
L25060 28000
" />
<path d="M24940 29000
L25060 29000
" />
<path d="M24940 30000
L25060 30000
" />
</g>
<g style="fill:#000000; fill-opacity:0.0; 
stroke:#000000; stroke-width:0; stroke-opacity:1; 
stroke-linecap:round; stroke-linejoin:round;">
</g>
<g style="fill:#000000; fill-opacity:1.0; 
stroke:#000000; stroke-width:0; stroke-opacity:1; 
stroke-linecap:round; stroke-linejoin:round;">
<polyline style="fill-rule:evenodd;"
points="44400,36660
44400,37340
43600,37340
43600,36660
44400,36660
" /> 
</g>
<g style="fill:#000000; fill-opacity:1.0; 
stroke:#000000; stroke-width:680; stroke-opacity:1; 
stroke-linecap:round; stroke-linejoin:round;">
</g>
<g style="fill:#000000; fill-opacity:0.0; 
stroke:#000000; stroke-width:680; stroke-opacity:1; 
stroke-linecap:round; stroke-linejoin:round;">
<path d="M44060 36000
L43940 36000
" />
<path d="M44060 35000
L43940 35000
" />
<path d="M44060 34000
L43940 34000
" />
<path d="M44060 33000
L43940 33000
" />
<path d="M44060 32000
L43940 32000
" />
<path d="M44060 31000
L43940 31000
" />
<path d="M44060 30000
L43940 30000
" />
</g>
<g style="fill:#000000; fill-opacity:0.0; 
stroke:#000000; stroke-width:0; stroke-opacity:1; 
stroke-linecap:round; stroke-linejoin:round;">
</g>
<g style="fill:#000000; fill-opacity:1.0; 
stroke:#000000; stroke-width:0; stroke-opacity:1; 
stroke-linecap:round; stroke-linejoin:round;">
<polyline style="fill-rule:evenodd;"
points="24600,32340
24600,31660
25400,31660
25400,32340
24600,32340
" /> 
</g>
<g style="fill:#000000; fill-opacity:1.0; 
stroke:#000000; stroke-width:680; stroke-opacity:1; 
stroke-linecap:round; stroke-linejoin:round;">
</g>
<g style="fill:#000000; fill-opacity:0.0; 
stroke:#000000; stroke-width:680; stroke-opacity:1; 
stroke-linecap:round; stroke-linejoin:round;">
<path d="M24940 33000
L25060 33000
" />
<path d="M24940 34000
L25060 34000
" />
<path d="M24940 35000
L25060 35000
" />
<path d="M24940 36000
L25060 36000
" />
<path d="M24940 37000
L25060 37000
" />
</g>
<g style="fill:#000000; fill-opacity:0.0; 
stroke:#000000; stroke-width:0; stroke-opacity:1; 
stroke-linecap:round; stroke-linejoin:round;">
</g>
<g style="fill:#000000; fill-opacity:1.0; 
stroke:#000000; stroke-width:0; stroke-opacity:1; 
stroke-linecap:round; stroke-linejoin:round;">
<polyline style="fill-rule:evenodd;"
points="38660,59600
39340,59600
39340,60400
38660,60400
38660,59600
" /> 
</g>
<g style="fill:#000000; fill-opacity:1.0; 
stroke:#000000; stroke-width:680; stroke-opacity:1; 
stroke-linecap:round; stroke-linejoin:round;">
</g>
<g style="fill:#000000; fill-opacity:0.0; 
stroke:#000000; stroke-width:680; stroke-opacity:1; 
stroke-linecap:round; stroke-linejoin:round;">
<path d="M38000 59940
L38000 60060
" />
<path d="M37000 59940
L37000 60060
" />
<path d="M36000 59940
L36000 60060
" />
<path d="M35000 59940
L35000 60060
" />
<path d="M34000 59940
L34000 60060
" />
<path d="M33000 59940
L33000 60060
" />
<path d="M32000 59940
L32000 60060
" />
<path d="M31000 59940
L31000 60060
" />
<path d="M30000 59940
L30000 60060
" />
</g>
<g style="fill:#000000; fill-opacity:0.0; 
stroke:#000000; stroke-width:0; stroke-opacity:1; 
stroke-linecap:round; stroke-linejoin:round;">
</g>
<g style="fill:#000000; fill-opacity:1.0; 
stroke:#000000; stroke-width:0; stroke-opacity:1; 
stroke-linecap:round; stroke-linejoin:round;">
<polyline style="fill-rule:evenodd;"
points="38660,57600
39340,57600
39340,58400
38660,58400
38660,57600
" /> 
</g>
<g style="fill:#000000; fill-opacity:1.0; 
stroke:#000000; stroke-width:680; stroke-opacity:1; 
stroke-linecap:round; stroke-linejoin:round;">
</g>
<g style="fill:#000000; fill-opacity:0.0; 
stroke:#000000; stroke-width:680; stroke-opacity:1; 
stroke-linecap:round; stroke-linejoin:round;">
<path d="M38000 57940
L38000 58060
" />
<path d="M37000 57940
L37000 58060
" />
<path d="M36000 57940
L36000 58060
" />
<path d="M35000 57940
L35000 58060
" />
<path d="M34000 57940
L34000 58060
" />
<path d="M33000 57940
L33000 58060
" />
<path d="M32000 57940
L32000 58060
" />
<path d="M31000 57940
L31000 58060
" />
<path d="M30000 57940
L30000 58060
" />
</g>
<g style="fill:#000000; fill-opacity:0.0; 
stroke:#000000; stroke-width:0; stroke-opacity:1; 
stroke-linecap:round; stroke-linejoin:round;">
</g>
<g style="fill:#000000; fill-opacity:1.0; 
stroke:#000000; stroke-width:0; stroke-opacity:1; 
stroke-linecap:round; stroke-linejoin:round;">
<polyline style="fill-rule:evenodd;"
points="34470,22660
34730,22660
34730,22820
34470,22820
34470,22660
" /> 
<polyline style="fill-rule:evenodd;"
points="34470,23180
34730,23180
34730,23340
34470,23340
34470,23180
" /> 
<polyline style="fill-rule:evenodd;"
points="34470,22920
34730,22920
34730,23080
34470,23080
34470,22920
" /> 
<polyline style="fill-rule:evenodd;"
points="35270,23180
35530,23180
35530,23340
35270,23340
35270,23180
" /> 
<polyline style="fill-rule:evenodd;"
points="35270,22660
35530,22660
35530,22820
35270,22820
35270,22660
" /> 
<polyline style="fill-rule:evenodd;"
points="43400,54660
43400,55340
42600,55340
42600,54660
43400,54660
" /> 
</g>
<g style="fill:#000000; fill-opacity:1.0; 
stroke:#000000; stroke-width:680; stroke-opacity:1; 
stroke-linecap:round; stroke-linejoin:round;">
</g>
<g style="fill:#000000; fill-opacity:0.0; 
stroke:#000000; stroke-width:680; stroke-opacity:1; 
stroke-linecap:round; stroke-linejoin:round;">
<path d="M43060 54000
L42940 54000
" />
<path d="M43060 53000
L42940 53000
" />
<path d="M43060 52000
L42940 52000
" />
<path d="M43060 51000
L42940 51000
" />
<path d="M43060 50000
L42940 50000
" />
<path d="M43060 49000
L42940 49000
" />
<path d="M43060 48000
L42940 48000
" />
<path d="M43060 47000
L42940 47000
" />
<path d="M43060 46000
L42940 46000
" />
<path d="M43060 45000
L42940 45000
" />
<path d="M43060 44000
L42940 44000
" />
<path d="M43060 43000
L42940 43000
" />
<path d="M43060 42000
L42940 42000
" />
<path d="M43060 41000
L42940 41000
" />
<path d="M43060 40000
L42940 40000
" />
</g>
<g style="fill:#000000; fill-opacity:0.0; 
stroke:#000000; stroke-width:0; stroke-opacity:1; 
stroke-linecap:round; stroke-linejoin:round;">
</g>
<g style="fill:#000000; fill-opacity:1.0; 
stroke:#000000; stroke-width:0; stroke-opacity:1; 
stroke-linecap:round; stroke-linejoin:round;">
<polyline style="fill-rule:evenodd;"
points="32600,32340
32600,31660
33400,31660
33400,32340
32600,32340
" /> 
</g>
<g style="fill:#000000; fill-opacity:1.0; 
stroke:#000000; stroke-width:680; stroke-opacity:1; 
stroke-linecap:round; stroke-linejoin:round;">
</g>
<g style="fill:#000000; fill-opacity:0.0; 
stroke:#000000; stroke-width:680; stroke-opacity:1; 
stroke-linecap:round; stroke-linejoin:round;">
<path d="M32940 33000
L33060 33000
" />
<path d="M32940 34000
L33060 34000
" />
</g>
<g style="fill:#000000; fill-opacity:0.0; 
stroke:#000000; stroke-width:0; stroke-opacity:1; 
stroke-linecap:round; stroke-linejoin:round;">
</g>
<g style="fill:#000000; fill-opacity:1.0; 
stroke:#000000; stroke-width:0; stroke-opacity:1; 
stroke-linecap:round; stroke-linejoin:round;">
<polyline style="fill-rule:evenodd;"
points="35547,52497
35547,52202
35862,52202
35862,52497
35547,52497
" /> 
<polyline style="fill-rule:evenodd;"
points="36137,52497
36137,52202
36452,52202
36452,52497
36137,52497
" /> 
<polyline style="fill-rule:evenodd;"
points="39627,49522
39332,49522
39332,49207
39627,49207
39627,49522
" /> 
<polyline style="fill-rule:evenodd;"
points="39627,48932
39332,48932
39332,48617
39627,48617
39627,48932
" /> 
<polyline style="fill-rule:evenodd;"
points="34797,51027
34797,50732
35112,50732
35112,51027
34797,51027
" /> 
<polyline style="fill-rule:evenodd;"
points="35387,51027
35387,50732
35702,50732
35702,51027
35387,51027
" /> 
<polyline style="fill-rule:evenodd;"
points="40217,48532
39922,48532
39922,48217
40217,48217
40217,48532
" /> 
<polyline style="fill-rule:evenodd;"
points="40217,47942
39922,47942
39922,47627
40217,47627
40217,47942
" /> 
<polyline style="fill-rule:evenodd;"
points="32007,52517
32007,52222
32322,52222
32322,52517
32007,52517
" /> 
<polyline style="fill-rule:evenodd;"
points="32597,52517
32597,52222
32912,52222
32912,52517
32597,52517
" /> 
<polyline style="fill-rule:evenodd;"
points="30867,52516
30867,52221
31182,52221
31182,52516
30867,52516
" /> 
<polyline style="fill-rule:evenodd;"
points="31457,52516
31457,52221
31772,52221
31772,52516
31457,52516
" /> 
<polyline style="fill-rule:evenodd;"
points="29552,48517
29847,48517
29847,48832
29552,48832
29552,48517
" /> 
<polyline style="fill-rule:evenodd;"
points="29552,49107
29847,49107
29847,49422
29552,49422
29552,49107
" /> 
<polyline style="fill-rule:evenodd;"
points="28962,47597
29257,47597
29257,47912
28962,47912
28962,47597
" /> 
<polyline style="fill-rule:evenodd;"
points="28962,48187
29257,48187
29257,48502
28962,48502
28962,48187
" /> 
<polyline style="fill-rule:evenodd;"
points="36687,52567
36687,52272
37002,52272
37002,52567
36687,52567
" /> 
<polyline style="fill-rule:evenodd;"
points="37277,52567
37277,52272
37592,52272
37592,52567
37277,52567
" /> 
<polyline style="fill-rule:evenodd;"
points="29769,53106
29769,52811
30084,52811
30084,53106
29769,53106
" /> 
<polyline style="fill-rule:evenodd;"
points="30359,53106
30359,52811
30674,52811
30674,53106
30359,53106
" /> 
<polyline style="fill-rule:evenodd;"
points="35822,42892
35822,43187
35507,43187
35507,42892
35822,42892
" /> 
<polyline style="fill-rule:evenodd;"
points="35232,42892
35232,43187
34917,43187
34917,42892
35232,42892
" /> 
<polyline style="fill-rule:evenodd;"
points="35372,44072
35372,44367
35057,44367
35057,44072
35372,44072
" /> 
<polyline style="fill-rule:evenodd;"
points="34782,44072
34782,44367
34467,44367
34467,44072
34782,44072
" /> 
<polyline style="fill-rule:evenodd;"
points="40217,49782
39922,49782
39922,49467
40217,49467
40217,49782
" /> 
<polyline style="fill-rule:evenodd;"
points="40217,49192
39922,49192
39922,48877
40217,48877
40217,49192
" /> 
<polyline style="fill-rule:evenodd;"
points="40807,48632
40512,48632
40512,48317
40807,48317
40807,48632
" /> 
<polyline style="fill-rule:evenodd;"
points="40807,48042
40512,48042
40512,47727
40807,47727
40807,48042
" /> 
<polyline style="fill-rule:evenodd;"
points="35982,42302
35982,42597
35667,42597
35667,42302
35982,42302
" /> 
<polyline style="fill-rule:evenodd;"
points="35392,42302
35392,42597
35077,42597
35077,42302
35392,42302
" /> 
<polyline style="fill-rule:evenodd;"
points="35482,43482
35482,43777
35167,43777
35167,43482
35482,43482
" /> 
<polyline style="fill-rule:evenodd;"
points="34892,43482
34892,43777
34577,43777
34577,43482
34892,43482
" /> 
<polyline style="fill-rule:evenodd;"
points="34452,31852
34452,32147
34137,32147
34137,31852
34452,31852
" /> 
<polyline style="fill-rule:evenodd;"
points="33862,31852
33862,32147
33547,32147
33547,31852
33862,31852
" /> 
<polyline style="fill-rule:evenodd;"
points="35547,27147
35547,26852
35862,26852
35862,27147
35547,27147
" /> 
<polyline style="fill-rule:evenodd;"
points="36137,27147
36137,26852
36452,26852
36452,27147
36137,27147
" /> 
<polyline style="fill-rule:evenodd;"
points="34452,26852
34452,27147
34137,27147
34137,26852
34452,26852
" /> 
<polyline style="fill-rule:evenodd;"
points="33862,26852
33862,27147
33547,27147
33547,26852
33862,26852
" /> 
<polyline style="fill-rule:evenodd;"
points="35547,22147
35547,21852
35862,21852
35862,22147
35547,22147
" /> 
<polyline style="fill-rule:evenodd;"
points="36137,22147
36137,21852
36452,21852
36452,22147
36137,22147
" /> 
<polyline style="fill-rule:evenodd;"
points="34452,21852
34452,22147
34137,22147
34137,21852
34452,21852
" /> 
<polyline style="fill-rule:evenodd;"
points="33862,21852
33862,22147
33547,22147
33547,21852
33862,21852
" /> 
<polyline style="fill-rule:evenodd;"
points="37067,53157
37067,52862
37382,52862
37382,53157
37067,53157
" /> 
<polyline style="fill-rule:evenodd;"
points="37657,53157
37657,52862
37972,52862
37972,53157
37657,53157
" /> 
<polyline style="fill-rule:evenodd;"
points="28372,47677
28667,47677
28667,47992
28372,47992
28372,47677
" /> 
<polyline style="fill-rule:evenodd;"
points="28372,48267
28667,48267
28667,48582
28372,48582
28372,48267
" /> 
<polyline style="fill-rule:evenodd;"
points="28962,48757
29257,48757
29257,49072
28962,49072
28962,48757
" /> 
<polyline style="fill-rule:evenodd;"
points="28962,49347
29257,49347
29257,49662
28962,49662
28962,49347
" /> 
<polyline style="fill-rule:evenodd;"
points="31667,53107
31667,52812
31982,52812
31982,53107
31667,53107
" /> 
<polyline style="fill-rule:evenodd;"
points="32257,53107
32257,52812
32572,52812
32572,53107
32257,53107
" /> 
<polyline style="fill-rule:evenodd;"
points="34997,51617
34997,51322
35312,51322
35312,51617
34997,51617
" /> 
<polyline style="fill-rule:evenodd;"
points="35587,51617
35587,51322
35902,51322
35902,51617
35587,51617
" /> 
<polyline style="fill-rule:evenodd;"
points="35547,32147
35547,31852
35862,31852
35862,32147
35547,32147
" /> 
<polyline style="fill-rule:evenodd;"
points="36137,32147
36137,31852
36452,31852
36452,32147
36137,32147
" /> 
<polyline style="fill-rule:evenodd;"
points="27862,40595
28276,40294
28646,40804
28232,41105
27862,40595
" /> 
<polyline style="fill-rule:evenodd;"
points="29019,42188
29433,41887
29803,42396
29389,42697
29019,42188
" /> 
<polyline style="fill-rule:evenodd;"
points="30038,41447
30452,41146
30822,41656
30408,41957
30038,41447
" /> 
<polyline style="fill-rule:evenodd;"
points="28881,39855
29295,39554
29665,40063
29251,40364
28881,39855
" /> 
<polyline style="fill-rule:evenodd;"
points="23606,49677
23606,49322
23803,49322
23803,49677
23606,49677
" /> 
<polyline style="fill-rule:evenodd;"
points="24196,49677
24196,49322
24393,49322
24393,49677
24196,49677
" /> 
</g>
<g style="fill:#000000; fill-opacity:1.0; 
stroke:#000000; stroke-width:98.4252; stroke-opacity:1; 
stroke-linecap:round; stroke-linejoin:round;">
</g>
<g style="fill:#000000; fill-opacity:0.0; 
stroke:#000000; stroke-width:98.4252; stroke-opacity:1; 
stroke-linecap:round; stroke-linejoin:round;">
<path d="M45295 49500
L45204 48500
" />
<path d="M23795 48500
L23704 49500
" />
<path d="M34600 33000
L34704 33000
" />
<path d="M34704 33000
L35704 32000
" />
<path d="M35704 32000
L34295 32000
" />
<path d="M34600 23000
L34704 23000
" />
<path d="M34704 23000
L35704 22000
" />
<path d="M35704 22000
L34295 22000
" />
<path d="M34600 23000
L33000 23000
" />
<path d="M34295 27000
L35705 27000
" />
<path d="M34705 28000
L35705 27000
" />
<path d="M34600 28000
L33000 28000
" />
<path d="M34600 28000
L34705 28000
" />
<path d="M35385 49271
L35385 49944
" />
<path d="M35188 49271
L35188 50043
" />
<path d="M35188 50043
L38000 56000
" />
<path d="M33811 49271
L33811 50043
" />
<path d="M33811 50043
L31000 56000
" />
<path d="M33220 49271
L33220 49748
" />
<path d="M33220 49748
L28000 56000
" />
<path d="M32728 48188
L31944 48188
" />
<path d="M31944 48188
L26000 51000
" />
<path d="M32728 47795
L31748 47795
" />
<path d="M34992 45728
L34992 44826
" />
<path d="M36271 47795
L37161 47795
" />
<path d="M37161 47795
L43000 49000
" />
<path d="M36271 48188
L36964 48188
" />
<path d="M36964 48188
L43000 51000
" />
<path d="M35385 49944
L39000 56000
" />
<path d="M31748 47795
L26000 49000
" />
<path d="M34992 44826
L37000 39000
" />
<path d="M34600 33000
L33000 33000
" />
<path d="M27000 26000
L33000 32000
" />
<path d="M33740 32740
L33000 32000
" />
<path d="M33704 32000
L33000 32000
" />
<path d="M25000 26000
L31000 26000
" />
<path d="M31000 26000
L33000 24000
" />
<path d="M25000 26000
L29000 26000
" />
<path d="M29000 26000
L33000 22000
" />
<path d="M25000 26000
L33000 34000
" />
<path d="M25000 26000
L27000 26000
" />
<path d="M25000 26000
L30000 26000
" />
<path d="M30000 26000
L33000 29000
" />
<path d="M25000 26000
L32000 26000
" />
<path d="M32000 26000
L33000 27000
" />
<path d="M34600 33260
L33740 33260
" />
<path d="M33740 33260
L33000 34000
" />
<path d="M34600 32740
L33740 32740
" />
<path d="M33704 22000
L33000 22000
" />
<path d="M34600 23260
L33740 23260
" />
<path d="M33740 23260
L33000 24000
" />
<path d="M34600 22740
L33740 22740
" />
<path d="M33740 22740
L33000 22000
" />
<path d="M33705 27000
L33000 27000
" />
<path d="M34600 28260
L33740 28260
" />
<path d="M33740 28260
L33000 29000
" />
<path d="M34600 27740
L33740 27740
" />
<path d="M33740 27740
L33000 27000
" />
<path d="M35976 49271
L35976 49649
" />
<path d="M35976 49649
L42000 56000
" />
<path d="M36271 48976
L36570 48976
" />
<path d="M36570 48976
L43000 55000
" />
<path d="M36271 48582
L36767 48582
" />
<path d="M36767 48582
L43000 53000
" />
<path d="M36271 47401
L37259 47401
" />
<path d="M37259 47401
L43000 47000
" />
<path d="M37062 47007
L43000 45000
" />
<path d="M36271 47007
L37062 47007
" />
<path d="M32728 48976
L32338 48976
" />
<path d="M32338 48976
L26000 55000
" />
<path d="M32728 48582
L32141 48582
" />
<path d="M32141 48582
L26000 53000
" />
<path d="M32728 47401
L31649 47401
" />
<path d="M31649 47401
L26000 47000
" />
<path d="M31846 47007
L26000 45000
" />
<path d="M32728 47007
L31846 47007
" />
<path d="M41000 56000
L39000 58000
" />
<path d="M39000 58000
L39000 58000
" />
<path d="M35779 49271
L35779 49748
" />
<path d="M35779 49748
L41000 56000
" />
<path d="M43000 54000
L44000 55000
" />
<path d="M38700 58800
L38000 58000
" />
<path d="M41700 58800
L38700 58800
" />
<path d="M44000 56500
L41700 58800
" />
<path d="M44000 55000
L44000 56500
" />
<path d="M36271 48779
L36669 48778
" />
<path d="M36669 48780
L43000 54000
" />
<path d="M43000 52000
L44500 53500
" />
<path d="M37800 58900
L37000 58000
" />
<path d="M42100 58900
L37800 58900
" />
<path d="M44500 56500
L42100 58900
" />
<path d="M44500 53500
L44500 56500
" />
<path d="M36866 48385
L43000 52000
" />
<path d="M36271 48385
L36866 48385
" />
<path d="M43000 46000
L45000 48000
" />
<path d="M36900 59000
L36000 58000
" />
<path d="M42500 59000
L36900 59000
" />
<path d="M45000 56500
L42500 59000
" />
<path d="M45000 48000
L45000 56500
" />
<path d="M36271 47204
L37161 47204
" />
<path d="M37161 47204
L43000 46000
" />
<path d="M43000 44000
L45500 46500
" />
<path d="M35900 59100
L35000 58000
" />
<path d="M42900 59100
L35900 59100
" />
<path d="M45500 56500
L42900 59100
" />
<path d="M45500 46500
L45500 56500
" />
<path d="M36271 46811
L36964 46811
" />
<path d="M36964 46811
L43000 44000
" />
<path d="M26000 54000
L25000 55000
" />
<path d="M33000 56900
L34000 58000
" />
<path d="M25900 56900
L33000 56900
" />
<path d="M25000 56000
L25900 56900
" />
<path d="M25000 55000
L25000 56000
" />
<path d="M32728 48779
L32240 48779
" />
<path d="M32240 48779
L26000 54000
" />
<path d="M26000 52000
L24500 53500
" />
<path d="M32100 57000
L33000 58000
" />
<path d="M25500 57000
L32100 57000
" />
<path d="M24500 56000
L25500 57000
" />
<path d="M24500 53500
L24500 56000
" />
<path d="M32043 48385
L26000 52000
" />
<path d="M32728 48385
L32043 48385
" />
<path d="M31100 57100
L32000 58000
" />
<path d="M25100 57100
L31100 57100
" />
<path d="M24000 56000
L25100 57100
" />
<path d="M24000 48000
L24000 56000
" />
<path d="M26000 46000
L24000 48000
" />
<path d="M31748 47204
L26000 46000
" />
<path d="M32728 47204
L31748 47204
" />
<path d="M26000 44000
L23500 46500
" />
<path d="M30200 57200
L31000 58000
" />
<path d="M24700 57200
L30200 57200
" />
<path d="M23500 56000
L24700 57200
" />
<path d="M23500 46500
L23500 56000
" />
<path d="M31944 46811
L26000 44000
" />
<path d="M32728 46811
L31944 46811
" />
<path d="M34795 45728
L34795 44728
" />
<path d="M35582 49846
L40000 56000
" />
<path d="M37062 47992
L43000 50000
" />
<path d="M31846 47992
L26000 50000
" />
<path d="M36295 27000
L37000 27000
" />
<path d="M35400 27740
L36260 27740
" />
<path d="M36260 27740
L37000 27000
" />
<path d="M35582 49271
L35582 49846
" />
<path d="M34795 49271
L34795 50240
" />
<path d="M34795 50240
L36000 56000
" />
<path d="M33614 49271
L33614 49944
" />
<path d="M32728 47992
L31846 47992
" />
<path d="M36271 47992
L37062 47992
" />
<path d="M33614 49944
L30000 56000
" />
<path d="M35400 33260
L36260 33260
" />
<path d="M35400 28260
L36260 28260
" />
<path d="M35400 23260
L36260 23260
" />
<path d="M32728 46023
L32338 46023
" />
<path d="M32338 46023
L26000 40000
" />
<path d="M32043 46614
L26000 43000
" />
<path d="M32728 46614
L32043 46614
" />
<path d="M41000 39000
L43000 37000
" />
<path d="M43000 27400
L44000 26400
" />
<path d="M43000 37000
L43000 27400
" />
<path d="M35779 45728
L35779 45220
" />
<path d="M35779 45220
L41000 39000
" />
<path d="M40000 39000
L42500 36500
" />
<path d="M42500 26900
L44000 25400
" />
<path d="M42500 36500
L42500 26900
" />
<path d="M35582 45728
L35582 45122
" />
<path d="M35582 45122
L40000 39000
" />
<path d="M39000 39000
L42000 36000
" />
<path d="M42000 26400
L44000 24400
" />
<path d="M42000 36000
L42000 26400
" />
<path d="M35385 45728
L35385 45023
" />
<path d="M35385 45023
L39000 39000
" />
<path d="M38000 39000
L41500 35500
" />
<path d="M41500 25900
L44000 23400
" />
<path d="M41500 35500
L41500 25900
" />
<path d="M35188 45728
L35188 44925
" />
<path d="M35188 44925
L38000 39000
" />
<path d="M33417 45122
L29000 39000
" />
<path d="M33417 45728
L33417 45122
" />
<path d="M33614 45023
L30000 39000
" />
<path d="M33614 45728
L33614 45023
" />
<path d="M33811 45728
L33811 44925
" />
<path d="M33811 44925
L31000 39000
" />
<path d="M34007 45728
L34007 44826
" />
<path d="M34007 44826
L32000 39000
" />
<path d="M34204 45728
L34204 44728
" />
<path d="M34204 44728
L33000 39000
" />
<path d="M34401 45728
L34401 44629
" />
<path d="M34401 44629
L34000 39000
" />
<path d="M35000 39000
L36000 38000
" />
<path d="M38000 33000
L37000 32000
" />
<path d="M38000 37000
L38000 33000
" />
<path d="M37000 38000
L38000 37000
" />
<path d="M36000 38000
L37000 38000
" />
<path d="M36295 32000
L37000 32000
" />
<path d="M35400 32740
L36260 32740
" />
<path d="M36260 32740
L37000 32000
" />
<path d="M35976 45318
L42000 39000
" />
<path d="M34598 44629
L35000 39000
" />
<path d="M34007 50141
L32000 56000
" />
<path d="M34401 49271
L34401 50338
" />
<path d="M34204 49271
L34204 50240
" />
<path d="M34204 50240
L33000 56000
" />
<path d="M34007 49271
L34007 50141
" />
<path d="M34598 45728
L34598 44629
" />
<path d="M35976 45728
L35976 45318
" />
<path d="M34401 50338
L34000 56000
" />
<path d="M34795 44728
L36000 39000
" />
<path d="M33417 49846
L29000 56000
" />
<path d="M34992 50141
L37000 56000
" />
<path d="M36866 46614
L43000 43000
" />
<path d="M36271 46614
L36866 46614
" />
<path d="M36767 46417
L43000 42000
" />
<path d="M36271 46417
L36767 46417
" />
<path d="M36271 46220
L36669 46220
" />
<path d="M36669 46220
L43000 41000
" />
<path d="M36570 46023
L43000 40000
" />
<path d="M36271 46023
L36570 46023
" />
<path d="M33220 45728
L33220 45220
" />
<path d="M33220 45220
L28000 39000
" />
<path d="M33023 45318
L27000 39000
" />
<path d="M33023 45728
L33023 45318
" />
<path d="M32728 46220
L32240 46220
" />
<path d="M32240 46220
L26000 41000
" />
<path d="M32141 46417
L26000 42000
" />
<path d="M32728 46417
L32141 46417
" />
<path d="M33023 49649
L27000 56000
" />
<path d="M33023 49271
L33023 49649
" />
<path d="M34598 50338
L35000 56000
" />
<path d="M34598 49271
L34598 50338
" />
<path d="M44704 49500
L44500 49500
" />
<path d="M44500 49500
L43000 48000
" />
<path d="M24295 49500
L24500 49500
" />
<path d="M24500 49500
L26000 48000
" />
<path d="M43000 48000
L43204 48000
" />
<path d="M36295 22000
L37000 22000
" />
<path d="M35400 22740
L36260 22740
" />
<path d="M36260 22740
L37000 22000
" />
<path d="M31649 47598
L26000 48000
" />
<path d="M37259 47598
L43000 48000
" />
<path d="M32728 47598
L31649 47598
" />
<path d="M36271 47598
L37259 47598
" />
<path d="M36260 33260
L37000 34000
" />
<path d="M36260 28260
L37000 29000
" />
<path d="M36260 23260
L37000 24000
" />
<path d="M33417 49271
L33417 49846
" />
<path d="M34992 49271
L34992 50141
" />
</g> 
</svg>
